<svg id="Layer_1" data-name="Layer 1" xmlns="http://www.w3.org/2000/svg" viewBox="0 0 256 256"><defs><style>.cls-1{fill:#9d884e;}</style></defs><path class="cls-1" d="M173.06,194.15H83.73a22.45,22.45,0,0,1-22.42-22.42V82.4A22.45,22.45,0,0,1,83.73,60h89.33A22.45,22.45,0,0,1,195.48,82.4v89.33A22.45,22.45,0,0,1,173.06,194.15ZM83.73,67.32A15.1,15.1,0,0,0,68.65,82.4v89.33a15.1,15.1,0,0,0,15.08,15.08h89.33a15.1,15.1,0,0,0,15.08-15.08V82.4a15.1,15.1,0,0,0-15.08-15.08Z"/><path class="cls-1" d="M128.4,161.49a34.42,34.42,0,1,1,24.34-10.08A34.23,34.23,0,0,1,128.4,161.49Zm0-61.51a27.09,27.09,0,1,0,27.08,27.08A27.12,27.12,0,0,0,128.4,100Z"/><circle class="cls-1" cx="171.11" cy="78.62" r="6.61" transform="translate(-17.06 71.47) rotate(-22.5)"/></svg>