<svg width="836" height="241" viewBox="0 0 836 241" fill="none" xmlns="http://www.w3.org/2000/svg">
<path fill-rule="evenodd" clip-rule="evenodd" d="M223.721 46.299C217.074 39.274 210.624 32.3828 204.37 25.7017C200.161 21.2047 196.041 16.8029 192.009 12.5195C191.856 12.3565 191.703 12.1938 191.55 12.0312L191.549 12.0321C191.389 12.189 191.23 12.3454 191.072 12.5013C184.984 18.4864 179.648 23.7471 175.242 28.6441C177.517 30.9777 179.814 33.3447 182.131 35.7319C189.508 43.3333 197.084 51.1389 204.774 58.7202C207.69 61.4556 207.875 63.2048 204.929 66.1018C199.628 71.082 194.467 76.1328 189.32 81.1697C185.886 84.5301 182.459 87.8844 179 91.2073C177.316 92.8628 175.395 94.5169 173.05 96.5363C172.54 96.9755 172.01 97.4321 171.458 97.9097C171.291 98.0542 171.121 98.2006 170.95 98.349C170.808 98.1706 170.671 97.9938 170.538 97.8188C170.088 97.2255 169.685 96.6529 169.3 96.1065C168.558 95.0521 167.885 94.0956 167.071 93.2774C157.478 83.5049 147.798 73.8185 138.147 64.1609C133.333 59.3433 128.526 54.5329 123.74 49.7226C121.424 47.4916 120.258 46.3683 119.094 46.3702C117.914 46.372 116.735 47.5308 114.361 49.8646C96.091 68.0204 77.6253 86.1752 59.1607 104.136C57.1443 106.002 54.9858 107.796 53.1165 109.349C52.1196 110.178 51.2049 110.938 50.4379 111.604C50.262 111.757 50.0938 111.905 49.9342 112.048C50.0894 112.209 50.2445 112.37 50.3995 112.531C61.332 123.886 72.095 135.027 82.7887 146.097C94.5812 158.305 106.289 170.425 118.048 182.647C118.203 182.808 118.358 182.969 118.512 183.13C118.675 182.97 118.835 182.815 118.993 182.663C119.627 182.055 120.23 181.502 120.818 180.965C121.504 180.337 122.169 179.728 122.833 179.075C127.81 174.182 132.808 169.312 137.806 164.441C147.802 154.698 157.799 144.956 167.622 135.04C170.57 131.949 172.524 131.96 175.437 135.084C181.654 141.593 188.045 147.93 194.436 154.267C197.631 157.436 200.827 160.604 204 163.795C204.671 164.468 205.276 165.206 205.964 166.045C206.474 166.665 207.029 167.341 207.689 168.088C206.875 168.862 206.062 169.634 205.252 170.404C194.508 180.614 184.104 190.501 174.192 200.064C174.031 200.219 173.87 200.374 173.709 200.53C173.867 200.688 174.025 200.847 174.182 201.005C179.688 206.54 184.874 211.757 190.73 217.82C190.885 217.98 191.04 218.141 191.196 218.302L192.378 217.119C202.671 206.816 213.319 196.157 224.322 184.977C224.479 184.817 224.635 184.658 224.792 184.499C224.95 184.657 225.107 184.816 225.265 184.974C231.085 190.821 236.806 196.522 242.381 202.077C247.813 207.49 253.106 212.764 258.214 217.898L275.304 201.096L272.001 197.775C269.764 195.526 267.539 193.277 265.316 191.031C258.662 184.305 252.034 177.607 245.186 171.016C242.66 168.477 242.473 166.922 245.222 164.413C255.435 154.758 265.453 145.102 275.276 135.251C277.829 132.935 279.392 132.943 281.723 135.287C285.9 139.584 290.175 143.832 294.45 148.08C298.725 152.329 303 156.577 307.177 160.873C314.961 168.697 322.558 176.519 330.331 184.524L330.881 185.09C331.044 184.929 331.204 184.773 331.361 184.622C332.138 183.873 332.837 183.234 333.476 182.65C334.102 182.077 334.672 181.556 335.201 181.035L335.489 180.756C350.712 165.981 365.743 151.393 380.775 136.422C383.525 133.718 385.285 133.533 388.2 136.463C397.719 146.227 407.435 155.799 417.151 165.37L417.152 165.37C419.874 167.911 419.864 169.659 417.114 172.363C410.184 178.885 403.475 185.519 396.82 192.097C394.61 194.282 392.406 196.461 390.202 198.628C388.631 199.979 387.255 201.525 386.272 202.685C390.123 206.427 393.719 210.083 397.452 213.878C399.223 215.678 401.024 217.51 402.898 219.397C403.055 219.555 403.213 219.714 403.371 219.872C403.528 219.714 403.686 219.556 403.844 219.397C412.338 210.856 421.021 202.133 429.893 193.411C433.625 189.741 435.492 187.906 437.348 187.917C439.204 187.927 441.05 189.782 444.742 193.493C453.517 202.314 462.104 211.134 470.503 219.768C470.659 219.929 470.815 220.089 470.971 220.249C471.128 220.089 471.285 219.93 471.441 219.772C477.346 213.788 482.709 208.515 488.259 203.059C487.677 202.279 486.706 201.108 485.735 200.131C476.797 191.147 467.859 182.163 458.724 173.371C455.42 170.245 455.04 168.301 458.575 165.019C468.197 156.138 477.43 147.06 486.469 137.787C489.81 134.116 491.764 134.127 495.262 137.642C502.45 145.063 509.785 152.436 517.12 159.809C524.455 167.182 531.79 174.555 538.978 181.976C542.475 185.686 544.429 185.697 547.965 182.22C556.495 173.613 565.152 165.133 573.827 156.635C580.338 150.258 586.859 143.871 593.344 137.412C595.703 134.9 597.463 134.521 599.988 137.255C609.702 147.214 619.418 156.98 629.329 166.553C632.245 169.288 631.845 171.034 629.095 173.544C619.866 182.424 610.832 191.306 601.602 200.381L601.594 200.388C601.1 200.955 600.606 201.488 600.17 201.958C599.565 202.611 599.071 203.143 598.842 203.481C601.659 206.41 604.428 209.193 607.294 212.074C610.015 214.809 612.824 217.633 615.845 220.753C616.006 220.919 616.167 221.086 616.329 221.253C616.436 221.078 616.549 220.871 616.671 220.642C616.736 220.519 616.804 220.39 616.874 220.256C617.391 219.266 618.041 218.025 618.891 217.189C624.392 211.651 630.067 206.115 635.742 200.578C638.579 197.81 641.416 195.042 644.232 192.274C647.35 189.304 648.584 187.901 649.748 187.957C650.93 188.014 652.04 189.576 654.977 192.528C658.39 195.959 661.835 199.36 665.286 202.767C670.479 207.892 675.685 213.031 680.82 218.31C683.346 220.85 685.299 221.055 687.658 218.349C691 214.677 694.34 211.393 698.07 208.112C700.623 205.796 700.828 204.049 698.106 201.509C693.442 197.015 688.876 192.426 684.31 187.836C679.743 183.246 675.177 178.656 670.513 174.163C667.403 171.232 667.608 169.485 670.553 166.782L670.554 166.781C680.375 157.319 690.196 147.857 699.822 138.199C702.181 135.687 703.746 135.308 706.466 138.042C714.628 146.539 723.011 154.928 731.366 163.29C734.147 166.074 736.925 168.854 739.692 171.635C744.771 176.741 749.667 181.845 754.382 186.773C754.536 186.935 754.691 187.096 754.845 187.258C755.004 187.1 755.163 186.943 755.321 186.786C778.764 163.55 801.636 141.061 824.695 118.391C824.851 118.238 825.007 118.084 825.162 117.931L825.173 117.921C825.163 117.911 825.154 117.901 825.144 117.89C824.975 117.716 824.772 117.475 824.549 117.211C824.261 116.868 823.941 116.486 823.62 116.164L759.496 52.2932C756.97 49.7542 755.6 50.135 753.243 52.4526L706.685 98.2259C704.132 100.737 702.569 100.728 700.043 98.1889C690.328 88.229 680.613 78.4634 670.701 68.8908C667.591 65.9601 667.796 64.2131 670.742 61.5103C680.17 52.434 689.6 43.1635 698.833 33.8919C699.817 32.732 700.613 30.0172 700.031 29.237C697.045 25.8428 693.795 22.5341 690.459 19.1374C688.807 17.4555 687.134 15.7519 685.462 14.0058C684.936 14.471 684.452 14.8947 684.004 15.2879C682.776 16.3631 681.809 17.2111 680.946 18.0595L680.649 18.3446C671.324 27.3219 662.189 36.1161 653.052 45.2906C650.891 47.4151 649.327 47.6007 647.19 45.258C643.888 41.8406 640.487 38.4711 637.086 35.1017C633.686 31.7323 630.285 28.3629 626.983 24.9454C624.187 21.9796 621.518 18.7663 618.974 15.7023C618.482 15.1108 617.996 14.5248 617.513 13.9473C617.369 13.7743 617.225 13.6021 617.081 13.4307C616.923 13.5911 616.765 13.7508 616.608 13.9097C615.658 14.8717 614.735 15.8066 613.835 16.719C608.615 22.0075 604.143 26.5378 599.399 31.2014C603.67 35.572 608.002 40.005 612.335 44.4381C618.844 51.0977 625.352 57.7575 631.651 64.206C628.656 67.1986 625.686 70.1671 622.716 73.1356C613.947 81.8988 605.179 90.6619 595.78 100.045C595.622 100.203 595.464 100.361 595.306 100.519C595.15 100.359 594.994 100.198 594.838 100.038C578.233 82.9666 561.25 65.7022 543.706 47.8759C543.55 47.7167 543.393 47.5574 543.236 47.3981C543.078 47.5556 542.919 47.7132 542.761 47.8707C525.407 65.1214 508.247 82.1827 491.651 98.6891C491.492 98.8467 491.334 99.0043 491.175 99.1618C491.019 99.0021 490.862 98.8424 490.706 98.6827C484.89 92.7428 479.118 86.8931 473.298 80.9952C467.42 75.0388 461.494 69.0332 455.425 62.8358L488.231 30.582C486.485 28.6965 484.76 26.8326 483.035 24.9688C479.726 21.3927 476.416 17.8167 472.955 14.0879C472.803 13.9243 472.651 13.7605 472.499 13.5964C472.338 13.7544 472.177 13.9097 472.017 14.0627C471.465 14.5895 470.916 15.0886 470.385 15.5727C469.749 16.1509 469.138 16.7078 468.571 17.2648C465.559 20.2261 462.525 23.1657 459.492 26.1053C453.424 31.9849 447.357 37.8644 441.462 43.9176C438.907 46.6226 437.148 46.6128 434.428 43.8784C425.493 34.5066 416.361 25.522 407.228 16.5374L407.225 16.5346C406.06 15.3628 404.698 14.1898 403.726 13.4074C400.877 16.3049 398.078 19.057 395.254 21.8333C392.43 24.6097 389.581 27.4102 386.634 30.4045C397.349 41.1749 408.442 52.1357 418.799 62.168C418.96 62.3237 419.12 62.4792 419.281 62.6344C419.122 62.7924 418.964 62.9504 418.806 63.1083C414.897 67.0143 411.026 70.8819 407.155 74.7497C399.284 82.6139 391.413 90.4786 383.213 98.6667C383.055 98.8245 382.897 98.9824 382.739 99.1404C382.582 98.9811 382.426 98.8218 382.269 98.6624C367.96 84.1087 353.36 69.1212 337.859 53.209C335.625 50.9157 333.373 48.6032 331.099 46.27C331.055 46.2241 331.01 46.1782 330.965 46.1323C330.958 46.125 330.951 46.1176 330.944 46.1103C330.921 46.087 330.898 46.0638 330.876 46.0405C330.743 45.9038 330.609 45.767 330.476 45.6301C330.44 45.665 330.405 45.7 330.369 45.735C330.344 45.7594 330.32 45.7839 330.295 45.8083C330.196 45.9055 330.097 46.0028 329.998 46.1004C329.834 46.2622 329.67 46.4246 329.505 46.5875C321.796 54.2115 313.316 63.1139 304.879 71.9716C296.972 80.2717 289.103 88.5326 281.941 95.6654C278.995 98.5625 277.236 98.5527 274.517 95.6241C264.997 85.8595 255.282 76.0938 245.565 66.7166C242.65 63.7869 242.855 62.04 245.801 59.3372C255.229 50.2609 264.658 40.9903 273.892 31.7187C274.875 30.5588 275.476 27.8429 274.895 27.0628C270.234 21.7926 265.377 16.9097 260.131 11.6363C254.211 17.4563 248.435 23.0876 242.59 28.7865C236.754 34.4772 230.848 40.2352 224.661 46.316C224.501 46.4725 224.342 46.6291 224.182 46.786C224.029 46.6236 223.875 46.4613 223.721 46.299ZM260.125 12.5816C254.369 18.2388 248.743 23.7235 243.053 29.2712L242.845 29.4739C236.928 35.2437 230.937 41.0849 224.652 47.2641L224.165 47.743L223.696 47.2469C216.885 40.0527 210.277 32.9934 203.877 26.1558C199.672 21.6632 195.556 17.2662 191.531 12.9895C185.638 18.7837 180.466 23.8824 176.161 28.6268C178.295 30.8169 180.447 33.0347 182.616 35.2697C189.991 42.8678 197.557 50.6636 205.239 58.2371C206.703 59.6123 207.666 60.8957 207.72 62.3254C207.774 63.7706 206.893 65.1113 205.399 66.5799L205.393 66.5852L205.388 66.5904C200.089 71.5683 194.94 76.608 189.798 81.6394C186.365 84.9996 182.935 88.3562 179.467 91.6882C177.767 93.3597 175.824 95.0324 173.477 97.0539C172.814 97.6241 172.12 98.222 171.39 98.8554L170.861 99.3137L170.426 98.7664C169.789 97.966 169.246 97.1946 168.747 96.4858C168.626 96.3142 168.508 96.1462 168.392 95.9824C167.788 95.1325 167.234 94.3916 166.595 93.7502L166.592 93.747C157.002 83.9768 147.326 74.2943 137.677 64.6383C132.863 59.8216 128.057 55.0115 123.27 50.2004C122.095 49.0682 121.254 48.2594 120.562 47.7293C119.868 47.1972 119.435 47.0353 119.08 47.0407C118.721 47.0461 118.28 47.2244 117.576 47.781C116.875 48.3345 116.022 49.1721 114.833 50.3415C96.561 68.4986 78.094 86.6546 59.6281 104.616L59.6221 104.622L59.616 104.628C57.9334 106.185 56.1558 107.689 54.5349 109.041C54.1949 109.325 53.8624 109.601 53.5394 109.87C52.5543 110.688 51.657 111.434 50.9035 112.088C61.8254 123.431 72.5819 134.566 83.2696 145.63C95.0631 157.839 106.773 169.96 118.529 182.18C119.144 181.589 119.729 181.052 120.294 180.535L120.362 180.473C121.051 179.843 121.707 179.242 122.363 178.597C127.344 173.7 132.345 168.827 137.344 163.955C147.336 154.216 157.323 144.483 167.141 134.573C168.634 133.008 170.03 132.052 171.546 132.061C173.063 132.069 174.449 133.041 175.925 134.623C182.134 141.125 188.513 147.45 194.899 153.783C198.096 156.953 201.295 160.125 204.476 163.322C205.083 163.932 205.634 164.588 206.217 165.296C206.305 165.403 206.394 165.511 206.484 165.621C206.993 166.242 207.54 166.907 208.191 167.644L208.62 168.129L208.151 168.574C207.337 169.347 206.526 170.119 205.716 170.888C194.973 181.097 184.573 190.98 174.665 200.539C180.166 206.069 185.35 211.285 191.204 217.345L191.901 216.647C202.342 206.196 213.145 195.382 224.314 184.029L224.789 183.546L225.267 184.026C231.095 189.884 236.827 195.596 242.413 201.163L242.865 201.613C248.127 206.856 253.259 211.97 258.219 216.953L274.354 201.09L271.526 198.248C269.286 195.996 267.058 193.745 264.835 191.498C258.182 184.774 251.562 178.084 244.721 171.499L244.716 171.494L244.711 171.489C243.443 170.214 242.58 169.023 242.556 167.716C242.531 166.387 243.371 165.196 244.766 163.922C254.974 154.271 264.985 144.621 274.801 134.778L274.813 134.766L274.826 134.755C276.125 133.576 277.318 132.844 278.586 132.851C279.866 132.858 281.004 133.613 282.199 134.814L282.204 134.82C286.376 139.111 290.647 143.356 294.923 147.605L294.926 147.608C299.199 151.854 303.476 156.104 307.656 160.404C315.439 168.228 323.036 176.05 330.807 184.051L330.894 184.141C331.593 183.467 332.228 182.883 332.809 182.351L333.022 182.156C333.651 181.581 334.211 181.069 334.731 180.557L334.734 180.554L335.023 180.274C350.247 165.499 365.274 150.914 380.302 135.947L380.305 135.944C381.694 134.578 382.987 133.682 384.415 133.659C385.853 133.637 387.194 134.501 388.675 135.99L388.68 135.995C398.192 145.752 407.901 155.317 417.616 164.887C419 166.179 419.863 167.421 419.855 168.809C419.848 170.188 418.979 171.469 417.584 172.841L417.579 172.846L417.573 172.851C410.65 179.368 403.948 185.993 397.295 192.57C395.084 194.756 392.879 196.937 390.672 199.106L390.656 199.122L390.639 199.136C389.312 200.278 388.12 201.569 387.19 202.643C390.877 206.238 394.346 209.764 397.937 213.415C399.705 215.213 401.503 217.041 403.371 218.922C411.864 210.382 420.549 201.657 429.423 192.933L429.455 192.901C431.294 191.093 432.715 189.696 433.91 188.757C435.107 187.815 436.19 187.24 437.351 187.246C438.513 187.253 439.589 187.84 440.776 188.795C441.96 189.747 443.366 191.16 445.185 192.989L445.217 193.021C453.992 201.841 462.578 210.66 470.974 219.291C476.728 213.46 481.969 208.303 487.366 202.997C486.8 202.279 486.028 201.377 485.26 200.604C476.321 191.62 467.389 182.641 458.261 173.856C456.611 172.295 455.496 170.864 455.415 169.288C455.333 167.68 456.33 166.188 458.119 164.527L458.12 164.526C467.73 155.657 476.951 146.591 485.981 137.327C487.655 135.49 489.149 134.37 490.798 134.349C492.445 134.329 493.985 135.408 495.737 137.169L495.743 137.176C502.928 144.593 510.26 151.963 517.595 159.336L517.601 159.342C524.934 166.713 532.27 174.087 539.46 181.51L539.466 181.516C541.21 183.366 542.403 184.098 543.472 184.123C544.537 184.148 545.73 183.476 547.491 181.745C556.02 173.14 564.685 164.652 573.365 156.15C579.874 149.774 586.39 143.391 592.864 136.944C594.055 135.677 595.238 134.782 596.561 134.697C597.919 134.611 599.173 135.386 600.474 136.793C610.182 146.746 619.889 156.503 629.791 166.066C631.28 167.464 632.108 168.772 632.005 170.181C631.906 171.555 630.932 172.774 629.554 174.033C620.333 182.905 611.307 191.779 602.083 200.848C601.587 201.417 601.091 201.951 600.66 202.416C600.576 202.507 600.494 202.595 600.416 202.679C600.14 202.978 599.91 203.231 599.731 203.437C602.404 206.208 605.04 208.858 607.769 211.601C610.446 214.292 613.211 217.071 616.18 220.135C616.193 220.111 616.206 220.087 616.219 220.062L616.28 219.945C616.438 219.642 616.614 219.306 616.804 218.965C617.231 218.203 617.76 217.361 618.418 216.714C623.922 211.173 629.602 205.631 635.279 200.093C638.115 197.326 640.95 194.56 643.762 191.796L643.766 191.792L643.77 191.789C644.232 191.348 644.657 190.939 645.048 190.561C645.967 189.675 646.702 188.965 647.31 188.452C648.156 187.738 648.942 187.231 649.821 187.29C650.68 187.348 651.413 187.94 652.189 188.694C652.59 189.082 653.042 189.557 653.562 190.103L653.585 190.127C654.117 190.687 654.729 191.329 655.452 192.055C658.856 195.477 662.297 198.874 665.748 202.28C670.945 207.41 676.162 212.56 681.299 217.841C682.531 219.079 683.491 219.603 684.32 219.626C685.121 219.648 686.023 219.204 687.153 217.908L687.158 217.903L687.163 217.897C690.52 214.208 693.876 210.908 697.624 207.612C698.873 206.477 699.374 205.626 699.396 204.875C699.417 204.133 698.976 203.237 697.649 201.999L697.645 201.995L697.641 201.992C692.972 197.494 688.403 192.901 683.839 188.313L683.834 188.309C679.268 183.719 674.708 179.135 670.05 174.648C668.48 173.168 667.553 171.82 667.592 170.369C667.631 168.929 668.617 167.65 670.094 166.294C679.912 156.834 689.724 147.381 699.341 137.733C700.521 136.477 701.659 135.57 702.965 135.484C704.299 135.397 705.556 136.176 706.942 137.569L706.946 137.573L706.95 137.578C715.106 146.069 723.482 154.452 731.836 162.812C734.618 165.597 737.398 168.379 740.167 171.162C745.248 176.27 750.146 181.376 754.858 186.301C778.306 163.06 801.184 140.566 824.247 117.891C824.178 117.81 824.108 117.727 824.038 117.644L823.957 117.547C823.689 117.23 823.415 116.909 823.147 116.639L823.145 116.637M823.145 116.637L759.023 52.7682L759.02 52.766C757.781 51.5202 756.994 51.175 756.353 51.2204C755.672 51.2687 754.899 51.7646 753.713 52.9307L707.155 98.704C705.86 99.9773 704.662 100.779 703.35 100.771C702.038 100.764 700.849 99.9494 699.567 98.6617L699.563 98.657C689.852 88.7011 680.143 78.9414 670.239 69.3759C668.669 67.8959 667.742 66.5483 667.781 65.097C667.819 63.6568 668.806 62.3777 670.283 61.0215C679.699 51.9569 689.116 42.6986 698.338 33.439C698.739 32.9563 699.141 32.1009 699.372 31.2469C699.488 30.8208 699.551 30.4281 699.558 30.1159C699.561 29.9603 699.55 29.8396 699.531 29.7522C699.519 29.6927 699.505 29.6602 699.498 29.6461C696.532 26.2773 693.315 23.0021 689.998 19.6252C688.489 18.0886 686.96 16.531 685.423 14.9339C685.073 15.2422 684.744 15.5309 684.432 15.8039C683.211 16.8735 682.264 17.7035 681.416 18.5376L681.411 18.5426L681.122 18.8207C671.793 27.8011 662.661 36.5926 653.527 45.7637L653.522 45.7687C652.418 46.8535 651.326 47.5951 650.126 47.6198C648.905 47.6449 647.808 46.9284 646.702 45.717C643.407 42.308 640.014 38.9459 636.615 35.5779L636.612 35.5751C633.213 32.2075 629.808 28.8338 626.501 25.4113L626.495 25.4052C623.684 22.4224 620.997 19.1882 618.451 16.1227C617.976 15.5505 617.505 14.9842 617.04 14.4265C616.106 15.3726 615.197 16.2926 614.311 17.1909C609.266 22.3014 604.917 26.7079 600.346 31.2107C604.478 35.4398 608.666 39.7251 612.854 44.0104C619.35 50.6564 625.845 57.3022 632.131 63.7376L632.594 64.2117L632.125 64.6802C629.133 67.6703 626.165 70.6363 623.197 73.6022C614.279 82.5152 605.361 91.4281 595.779 100.993L595.299 101.473L594.825 100.986C578.073 83.7604 560.938 66.3414 543.231 48.3486C525.713 65.7632 508.391 82.9847 491.648 99.6372L491.169 100.114L490.696 99.6307C484.771 93.5777 478.895 87.6219 472.969 81.6161L472.82 81.4657C466.943 75.5096 461.016 69.5032 454.946 63.3048L454.478 62.8268L487.297 30.5601C485.701 28.8368 484.122 27.1303 482.543 25.4239C479.237 21.8512 475.931 18.279 472.473 14.5541C471.943 15.06 471.418 15.5389 470.912 15.9988C470.247 16.6046 469.619 17.1744 469.041 17.7429C466.021 20.7118 462.984 23.6552 459.948 26.5966C453.886 32.4707 447.833 38.3368 441.945 44.3819C440.643 45.7597 439.395 46.6159 438.003 46.6082C436.62 46.6005 435.334 45.7393 433.953 44.3513L433.948 44.3462L433.943 44.341C425.016 34.9772 415.89 25.9992 406.755 17.0125L406.75 17.0075C405.783 16.0353 404.674 15.0583 403.775 14.313C401.069 17.0562 398.405 19.6751 395.724 22.3116C393.048 24.9417 390.355 27.5896 387.578 30.4024C398.311 41.1857 409.406 52.1432 419.747 62.1527L420.237 62.6269L419.754 63.1087C415.689 67.1701 411.668 71.1884 407.646 75.2069C399.618 83.2284 391.59 91.2502 383.213 99.6148L382.735 100.092L382.261 99.6105C367.8 84.9056 353.049 69.7627 337.378 53.6762C335.164 51.4033 332.932 49.1115 330.679 46.7995C330.663 46.8152 330.645 46.8319 330.626 46.8485C330.611 46.8618 330.592 46.8772 330.57 46.8931C330.549 46.9086 330.52 46.9285 330.484 46.9483C330.45 46.9669 330.394 46.9944 330.321 47.0137C330.256 47.0306 330.148 47.0494 330.017 47.0243C322.711 54.2482 314.707 62.6273 306.694 71.0374C306.251 71.5031 305.807 71.969 305.363 72.4348C297.459 80.7333 289.583 89.0007 282.415 96.1404L282.412 96.1435C280.925 97.6054 279.577 98.5077 278.14 98.4997C276.695 98.4917 275.407 97.5667 274.032 96.0868C264.517 86.327 254.808 76.5683 245.099 67.199L245.094 67.1943L245.089 67.1894C243.612 65.7043 242.746 64.3539 242.815 62.9094C242.884 61.4801 243.862 60.2074 245.342 58.8484C254.758 49.7839 264.175 40.5256 273.397 31.2661C273.784 30.7983 274.14 29.9591 274.325 29.1058C274.417 28.6823 274.46 28.2888 274.452 27.974C274.443 27.6672 274.389 27.5206 274.364 27.4753C269.867 22.3915 265.183 17.6661 260.125 12.5816M260.11 115.558L259.638 116.022C248.247 127.222 236.658 138.808 224.872 150.782L224.529 151.131L224.092 150.911C224.027 150.878 223.933 150.839 223.797 150.786C223.771 150.776 223.744 150.765 223.716 150.754C223.606 150.712 223.479 150.663 223.354 150.61C223.055 150.484 222.654 150.295 222.36 149.999C211.677 139.261 200.996 128.524 190.315 117.983C189.404 117.166 188.72 116.242 188.629 115.188C188.535 114.094 189.093 113.083 190.15 112.145C192.805 109.583 195.461 107.008 198.121 104.429C206.076 96.7167 214.064 88.972 222.159 81.4475C222.479 81.1368 222.929 80.9568 223.352 80.8507C223.795 80.7396 224.292 80.6892 224.777 80.6919C225.262 80.6946 225.759 80.7505 226.201 80.8666C226.626 80.9782 227.078 81.1653 227.395 81.4842L227.399 81.4884C234.706 88.9642 241.926 96.5295 249.115 104.061C252.632 107.747 256.143 111.425 259.652 115.08L260.11 115.558ZM222.621 81.933C214.53 89.4541 206.547 97.1937 198.592 104.907C195.927 107.49 193.266 110.07 190.605 112.637C188.642 114.374 189.024 115.93 190.774 117.494C201.462 128.042 212.149 138.784 222.835 149.526C223.106 149.799 223.568 149.978 223.954 150.128C224.122 150.193 224.276 150.253 224.394 150.312C236.183 138.335 247.774 126.746 259.168 115.544C255.656 111.886 252.144 108.206 248.626 104.52C241.439 96.99 234.224 89.4299 226.92 81.957C226.142 81.1757 223.407 81.1605 222.621 81.933ZM613.225 115.959L613.703 115.49C614.699 114.511 615.901 113.465 617.16 112.369C617.414 112.148 617.671 111.924 617.928 111.699C619.473 110.35 621.073 108.919 622.524 107.397L622.535 107.386L622.545 107.376C626.469 103.615 630.344 99.8053 634.222 95.9919L634.227 95.9872C638.106 92.1732 641.989 88.3558 645.921 84.5868L645.932 84.5761L645.944 84.5659C646.147 84.3881 646.346 84.2043 646.55 84.0157L646.577 83.9906C646.788 83.7959 647.005 83.5956 647.224 83.4073C647.657 83.0349 648.14 82.6704 648.683 82.449C649.246 82.2194 649.867 82.1468 650.543 82.3469C651.2 82.5414 651.854 82.9771 652.532 83.6584L652.538 83.6647L652.544 83.6712C662.477 94.2003 672.411 104.562 682.035 114.599L684.655 117.333L684.199 117.797C673.186 129.004 661.794 140.397 650.585 151.607L649.534 152.659L649.06 152.182C637.79 140.854 626.13 129.134 613.694 116.437L613.225 115.959ZM474.168 117.031L473.759 117.418C468.265 122.627 462.965 127.837 457.66 133.052L457.656 133.056L457.652 133.06C455.312 135.284 452.993 137.549 450.676 139.811C447.186 143.219 443.703 146.621 440.162 149.869L440.143 149.886L440.123 149.902C439.498 150.394 438.382 150.752 437.384 150.899C436.87 150.974 436.339 151.002 435.865 150.949C435.419 150.899 434.903 150.765 434.546 150.409C427.027 143.112 419.679 135.639 412.337 128.172C408.668 124.441 405.001 120.711 401.315 117.006L401.119 116.808L401.12 116.548C401.12 116.547 401.12 116.546 401.12 116.545C401.118 116.526 401.114 116.483 401.103 116.406C401.082 116.252 401.037 115.974 400.944 115.495L400.874 115.141L401.132 114.889C402.566 113.478 404.138 112.024 405.749 110.533L405.909 110.385C407.579 108.84 409.29 107.254 410.952 105.62L410.958 105.614C418.614 98.2796 426.273 90.7503 433.934 83.2175C434.902 82.2663 435.876 81.4309 436.995 81.252C438.193 81.0603 439.325 81.6373 440.546 82.8638C440.546 82.8645 440.547 82.8652 440.548 82.8659L472.024 113.919L472.029 113.924C472.371 114.268 472.644 114.658 472.917 115.083C473.027 115.253 473.133 115.423 473.244 115.601C473.423 115.889 473.616 116.197 473.857 116.561L474.168 117.031ZM440.072 83.3387C437.741 80.9949 436.369 81.7642 434.404 83.6956C426.743 91.2279 419.082 98.7602 411.422 106.098C409.7 107.791 407.926 109.432 406.208 111.022C404.594 112.515 403.029 113.963 401.602 115.367C401.792 116.339 401.79 116.533 401.79 116.533C405.482 120.244 409.152 123.976 412.822 127.709C420.162 135.173 427.502 142.638 435.017 149.932C435.794 150.713 438.728 150.146 439.709 149.375C443.245 146.13 446.712 142.745 450.193 139.346C452.511 137.083 454.835 134.813 457.19 132.574L457.191 132.574C462.495 127.359 467.799 122.145 473.298 116.931C473.054 116.564 472.849 116.235 472.664 115.939C472.261 115.292 471.953 114.799 471.553 114.397L440.072 83.3387ZM756.013 82.3854L756.49 82.8898C762.22 88.9418 767.901 94.8965 773.583 100.852C779.265 106.808 784.948 112.765 790.679 118.819L791.132 119.296L790.662 119.758C790.664 119.756 790.664 119.756 790.661 119.759C790.656 119.765 790.641 119.782 790.613 119.817C790.576 119.863 790.529 119.923 790.471 119.998C790.404 120.084 790.325 120.188 790.235 120.303C790.171 120.386 790.102 120.474 790.03 120.566C789.679 121.009 789.216 121.566 788.696 122.077C785.48 125.239 782.246 128.376 779.014 131.51C772.559 137.771 766.111 144.025 759.83 150.457C758.428 151.932 757.083 152.833 755.621 152.825C754.159 152.817 752.825 151.902 751.44 150.412C745.097 143.907 738.757 137.577 732.412 131.243C729.238 128.074 726.063 124.904 722.886 121.711C722.372 121.194 721.916 120.632 721.569 120.184C721.397 119.961 721.247 119.76 721.134 119.612C721.077 119.536 721.031 119.476 720.995 119.43C720.953 119.378 720.94 119.364 720.945 119.369L720.481 118.903L723.757 115.518C734.356 104.567 744.692 93.8861 755.525 82.8804L756.013 82.3854ZM751.924 149.949C754.644 152.878 756.597 152.888 759.349 149.99C765.637 143.551 772.097 137.285 778.558 131.019C781.788 127.886 785.018 124.754 788.226 121.599C788.905 120.932 789.491 120.171 789.853 119.701C790.015 119.491 790.132 119.339 790.193 119.28C784.462 113.226 778.78 107.271 773.098 101.315C767.568 95.5192 762.039 89.7234 756.465 83.8378C756.311 83.6755 756.157 83.5131 756.003 83.3507C755.846 83.5101 755.69 83.6695 755.533 83.8288C744.874 94.662 734.687 105.188 724.244 115.979L721.421 118.896C721.481 118.957 721.596 119.11 721.756 119.322C722.113 119.796 722.69 120.563 723.362 121.238C726.535 124.428 729.709 127.597 732.883 130.765C739.23 137.102 745.578 143.439 751.924 149.949ZM152.636 115.355L152.184 115.808C146.878 121.121 141.327 126.627 135.728 132.179L135.588 132.319C130.035 137.826 124.436 143.379 118.983 148.836L118.507 149.312L118.033 148.835C112.3 143.072 106.567 137.261 100.981 131.597L100.53 131.14C95.1019 125.636 89.817 120.278 84.8079 115.243L84.345 114.777L84.8004 114.305C95.4094 103.295 106.609 91.5115 118.202 79.1474L118.693 78.6239L119.182 79.1493C130.447 91.2541 141.521 103.166 152.205 114.882L152.636 115.355ZM543.437 81.1929L543.922 81.7056C548.274 86.3026 552.568 90.8691 556.794 95.3638C563.704 102.712 570.433 109.869 576.942 116.654L577.392 117.123L576.936 117.587C566.326 128.405 554.928 139.997 543.531 151.396L543.052 151.875L542.578 151.391C536.549 145.226 530.509 138.995 524.621 132.919C519.514 127.649 514.52 122.496 509.744 117.605L509.294 117.145L509.736 116.676C520.153 105.663 531.355 93.8763 542.95 81.704L543.437 81.1929ZM366.196 116.731L365.723 117.196C359.829 122.991 353.353 129.358 346.876 136.112L346.864 136.124L346.852 136.136C345.067 137.815 343.299 139.537 341.532 141.259C338.865 143.857 336.201 146.453 333.484 148.891L333.468 148.906L333.451 148.919C332.825 149.411 331.71 149.769 330.712 149.916C330.198 149.992 329.667 150.019 329.193 149.966C328.745 149.916 328.229 149.782 327.872 149.425C320.607 142.253 313.428 134.992 306.281 127.765C302.719 124.163 299.166 120.57 295.614 117C295.451 116.835 295.316 116.623 295.222 116.435C295.14 116.268 295.031 116.005 295.033 115.744L295.034 115.465L295.233 115.27C301.318 109.287 307.209 103.303 313.104 97.3137L313.108 97.3098L313.111 97.3059C314.281 96.1557 315.453 94.9914 316.63 93.8227C320.181 90.2948 323.773 86.7265 327.471 83.382L327.483 83.371L327.496 83.3606C328.208 82.7772 329.361 82.3658 330.361 82.1677C330.871 82.0665 331.384 82.0124 331.827 82.0292C332.048 82.0375 332.271 82.0642 332.475 82.1215C332.673 82.1767 332.905 82.2747 333.09 82.4614C341.124 90.5363 349.051 98.824 357.101 107.24C359.961 110.23 362.836 113.235 365.737 116.253L366.196 116.731ZM328.344 148.949C329.121 149.73 332.055 149.164 333.036 148.392C335.748 145.959 338.389 143.385 341.045 140.797C342.813 139.074 344.587 137.345 346.392 135.647C352.877 128.886 359.36 122.512 365.253 116.718C362.35 113.697 359.473 110.69 356.613 107.7C348.564 99.2847 340.643 91.004 332.615 82.9343C332.032 82.3483 329.098 82.9147 327.921 83.8792C324.236 87.2122 320.66 90.7648 317.111 94.2898C315.932 95.4606 314.757 96.6283 313.582 97.784L313.581 97.785C307.687 103.773 301.792 109.761 295.703 115.748C295.702 115.942 295.895 116.332 296.089 116.527C299.644 120.1 303.199 123.695 306.761 127.297C313.907 134.523 321.082 141.779 328.344 148.949ZM649.062 151.234C649.22 151.393 649.378 151.551 649.535 151.709L650.106 151.138C661.317 139.926 672.708 128.534 683.721 117.327L681.557 115.07C671.931 105.03 661.993 94.6647 652.056 84.1312C649.832 81.8951 648.497 83.1288 647.004 84.5096C646.801 84.6967 646.596 84.8865 646.385 85.0708C642.457 88.8364 638.577 92.6508 634.697 96.4652C630.817 100.28 626.938 104.094 623.009 107.86C621.287 109.666 619.365 111.339 617.594 112.88C616.536 113.801 615.531 114.675 614.656 115.503C614.518 115.633 614.383 115.762 614.253 115.89C614.226 115.916 614.199 115.942 614.173 115.968C626.433 128.485 637.939 140.053 649.062 151.234ZM118.691 79.606C118.538 79.7694 118.385 79.9328 118.232 80.0961C106.8 92.2836 95.7541 103.903 85.2832 114.77C90.2942 119.807 95.581 125.167 101.01 130.671C106.584 136.323 112.308 142.127 118.036 147.887C118.193 148.046 118.351 148.204 118.508 148.363C118.666 148.205 118.824 148.047 118.982 147.888C124.287 142.583 129.722 137.192 135.114 131.845C140.761 126.244 146.36 120.691 151.71 115.334C141.173 103.779 130.257 92.0337 119.149 80.0979C118.997 79.9339 118.844 79.77 118.691 79.606ZM542.588 150.443C542.744 150.602 542.901 150.762 543.057 150.922C543.215 150.764 543.373 150.606 543.531 150.448C554.768 139.205 565.995 127.785 576.458 117.118C569.947 110.331 563.212 103.168 556.3 95.8168C552.224 91.4823 548.087 87.082 543.897 82.654C543.743 82.4915 543.589 82.329 543.435 82.1664C543.281 82.3285 543.127 82.4905 542.972 82.6525C531.543 94.6521 520.501 106.271 510.224 117.137C515.007 122.037 520.001 127.189 525.106 132.457C530.838 138.37 536.711 144.43 542.588 150.443Z" fill="#9D884E" fill-opacity="0.2"/>
</svg>
