<svg width="584" height="241" viewBox="0 0 584 241" fill="none" xmlns="http://www.w3.org/2000/svg">
<path fill-rule="evenodd" clip-rule="evenodd" d="M-28.2783 46.8422C-34.9256 39.8171 -41.3759 32.926 -47.6296 26.2449C-51.8389 21.7479 -55.9591 17.3461 -59.9904 13.0626C-60.1438 12.8997 -60.297 12.7369 -60.4501 12.5743L-60.451 12.5753C-60.6106 12.7321 -60.7697 12.8885 -60.9282 13.0444C-67.0154 19.0295 -72.3517 24.2903 -76.7581 29.1873C-74.483 31.5209 -72.1857 33.8879 -69.8689 36.275C-62.4914 43.8765 -54.9158 51.6821 -47.2258 59.2633C-44.3101 61.9988 -44.1243 63.7479 -47.071 66.645C-52.3722 71.6251 -57.5331 76.6759 -62.6799 81.7129C-66.1136 85.0733 -69.541 88.4275 -72.9995 91.7505C-74.6833 93.4059 -76.6043 95.0601 -78.9496 97.0794C-79.4597 97.5187 -79.99 97.9752 -80.5422 98.4529C-80.7092 98.5973 -80.8783 98.7437 -81.0494 98.8921C-81.1913 98.7137 -81.3284 98.537 -81.4613 98.362C-81.912 97.7687 -82.3151 97.196 -82.6997 96.6497C-83.4418 95.5953 -84.1151 94.6387 -84.9291 93.8205C-94.5215 84.0481 -104.201 74.3616 -113.852 64.7041C-118.667 59.8864 -123.474 55.076 -128.259 50.2657C-130.575 48.0347 -131.741 46.9115 -132.906 46.9133C-134.086 46.9152 -135.265 48.0739 -137.638 50.4077C-155.909 68.5636 -174.374 86.7184 -192.839 104.679C-194.855 106.545 -197.014 108.339 -198.883 109.892C-199.88 110.721 -200.795 111.481 -201.562 112.148C-201.738 112.3 -201.906 112.448 -202.066 112.591C-201.91 112.752 -201.755 112.913 -201.6 113.074C-190.668 124.429 -179.905 135.57 -169.211 146.64C-157.419 158.848 -145.71 170.968 -133.952 183.19C-133.797 183.351 -133.642 183.512 -133.487 183.673C-133.325 183.513 -133.165 183.358 -133.006 183.206C-132.373 182.598 -131.769 182.045 -131.182 181.508C-130.496 180.88 -129.831 180.272 -129.167 179.618C-124.19 174.726 -119.192 169.855 -114.194 164.984C-104.198 155.241 -94.2012 145.499 -84.3774 135.583C-81.4297 132.492 -79.4759 132.503 -76.5624 135.627C-70.346 142.136 -63.955 148.473 -57.564 154.81C-54.3685 157.979 -51.1731 161.148 -47.9995 164.338C-47.3292 165.011 -46.724 165.749 -46.0353 166.588C-45.5261 167.208 -44.9712 167.884 -44.3108 168.631C-45.125 169.405 -45.9373 170.177 -46.7477 170.947C-57.4921 181.158 -67.8956 191.044 -77.8078 200.607C-77.9688 200.762 -78.1296 200.918 -78.2903 201.073C-78.1325 201.231 -77.9746 201.39 -77.8174 201.548C-72.3113 207.083 -67.1259 212.3 -61.2695 218.363C-61.1147 218.523 -60.9595 218.684 -60.8038 218.845L-59.6221 217.662C-49.329 207.359 -38.6812 196.7 -27.6778 185.52C-27.5212 185.361 -27.3644 185.201 -27.2076 185.042C-27.0499 185.2 -26.8923 185.359 -26.7347 185.517C-20.9151 191.364 -15.1936 197.065 -9.6189 202.62C-4.18686 208.033 1.10584 213.307 6.21405 218.442L23.3047 201.639L20.0015 198.318C17.7641 196.069 15.5389 193.82 13.3167 191.575C6.66184 184.849 0.0341118 178.15 -6.81383 171.559C-9.3398 169.02 -9.52663 167.465 -6.77749 164.956C3.43546 155.301 13.453 145.645 23.2763 135.794C25.829 133.478 27.392 133.487 29.7237 135.83C33.9007 140.127 38.1757 144.375 42.4507 148.623C46.7257 152.872 51.0007 157.12 55.1777 161.416C62.961 169.24 70.5578 177.063 78.3316 185.067L78.8809 185.633C79.0444 185.472 79.2044 185.317 79.3613 185.165C80.1386 184.416 80.8371 183.777 81.4758 183.193C82.1026 182.62 82.6718 182.099 83.2016 181.578L83.4894 181.299C98.7126 166.524 113.743 151.936 128.776 136.965C131.526 134.261 133.285 134.077 136.2 137.006C145.719 146.771 155.436 156.342 165.152 165.913L165.152 165.914C167.874 168.454 167.864 170.202 165.114 172.906C158.185 179.428 151.475 186.062 144.82 192.641C142.61 194.825 140.406 197.004 138.202 199.171C136.632 200.522 135.256 202.068 134.272 203.228C138.123 206.97 141.719 210.626 145.452 214.422C147.223 216.222 149.024 218.053 150.899 219.94C151.056 220.098 151.213 220.257 151.371 220.416C151.529 220.257 151.686 220.099 151.844 219.94C160.338 211.4 169.021 202.676 177.893 193.954C181.626 190.284 183.492 188.449 185.348 188.46C187.204 188.47 189.05 190.326 192.742 194.037C201.517 202.857 210.104 211.677 218.503 220.312C218.659 220.472 218.815 220.632 218.971 220.792C219.128 220.633 219.285 220.473 219.442 220.315C225.346 214.331 230.709 209.058 236.259 203.602C235.677 202.822 234.707 201.651 233.735 200.675C224.797 191.69 215.859 182.706 206.724 173.914C203.42 170.788 203.04 168.844 206.575 165.562C216.198 156.681 225.43 147.603 234.469 138.331C237.811 134.659 239.764 134.67 243.262 138.185C250.45 145.606 257.785 152.979 265.12 160.352C272.455 167.725 279.79 175.098 286.979 182.519C290.475 186.229 292.429 186.24 295.965 182.764C304.495 174.156 313.152 165.676 321.828 157.179C328.338 150.801 334.859 144.414 341.345 137.955C343.703 135.443 345.463 135.064 347.988 137.798C357.702 147.758 367.418 157.523 377.33 167.096C380.245 169.831 379.845 171.577 377.096 174.087C367.866 182.967 358.832 191.849 349.602 200.924L349.595 200.932C349.1 201.498 348.607 202.031 348.17 202.501C347.565 203.154 347.071 203.687 346.842 204.024C349.659 206.953 352.428 209.736 355.294 212.617C358.015 215.352 360.824 218.176 363.846 221.296C364.006 221.462 364.167 221.629 364.329 221.796C364.436 221.621 364.55 221.414 364.671 221.186C364.736 221.062 364.804 220.933 364.874 220.799C365.392 219.809 366.041 218.568 366.891 217.732C372.392 212.194 378.067 206.658 383.742 201.121C386.579 198.353 389.417 195.585 392.232 192.817C395.351 189.847 396.585 188.444 397.748 188.501C398.93 188.558 400.04 190.119 402.977 193.071C406.39 196.503 409.835 199.903 413.287 203.31C418.479 208.435 423.685 213.574 428.821 218.854C431.347 221.393 433.299 221.598 435.659 218.892C439 215.22 442.34 211.937 446.07 208.656C448.623 206.339 448.828 204.592 446.107 202.052C441.442 197.559 436.876 192.969 432.31 188.379C427.744 183.789 423.177 179.199 418.513 174.706C415.403 171.775 415.608 170.028 418.554 167.325L418.554 167.325C428.375 157.862 438.196 148.4 447.823 138.742C450.181 136.23 451.746 135.851 454.467 138.585C462.629 147.082 471.011 155.472 479.366 163.833C482.147 166.617 484.926 169.397 487.692 172.178C492.771 177.284 497.668 182.389 502.382 187.316C502.537 187.478 502.691 187.639 502.845 187.801C503.004 187.643 503.163 187.486 503.322 187.329C526.764 164.093 549.637 141.604 572.695 118.934C572.851 118.781 573.007 118.628 573.163 118.475L573.173 118.464C573.164 118.454 573.154 118.444 573.144 118.434C572.975 118.26 572.772 118.018 572.55 117.754C572.261 117.411 571.941 117.03 571.62 116.707L507.496 52.8364C504.97 50.2973 503.6 50.6781 501.243 52.9958L454.686 98.769C452.132 101.28 450.569 101.271 448.043 98.732C438.329 88.7721 428.613 79.0065 418.702 69.434C415.592 66.5032 415.797 64.7563 418.742 62.0535C428.17 52.9771 437.6 43.7067 446.834 34.435C447.817 33.2751 448.614 30.5603 448.032 29.7801C445.045 26.386 441.795 23.0772 438.459 19.6806C436.808 17.9986 435.135 16.2951 433.462 14.549C432.936 15.0142 432.453 15.4378 432.004 15.8311C430.777 16.9063 429.809 17.7542 428.946 18.6027L428.65 18.8877C419.324 27.865 410.189 36.6593 401.052 45.8338C398.891 47.9583 397.327 48.1438 395.191 45.8011C391.888 42.3837 388.487 39.0143 385.087 35.6449C381.686 32.2754 378.285 28.906 374.983 25.4886C372.188 22.5228 369.519 19.3094 366.974 16.2455C366.483 15.6539 365.996 15.068 365.514 14.4905C365.369 14.3175 365.225 14.1452 365.082 13.9738C364.923 14.1343 364.765 14.2939 364.608 14.4529C363.658 15.4149 362.735 16.3498 361.835 17.2621C356.615 22.5506 352.143 27.081 347.4 31.7445C351.67 36.1152 356.003 40.5482 360.335 44.9813C366.844 51.6409 373.353 58.3006 379.651 64.7491C376.656 67.7418 373.686 70.7103 370.716 73.6788C361.948 82.442 353.179 91.205 343.78 100.588C343.622 100.746 343.464 100.904 343.306 101.062C343.15 100.902 342.994 100.742 342.838 100.581C326.233 83.5098 309.25 66.2453 291.707 48.4191C291.55 48.2599 291.393 48.1006 291.236 47.9412C291.078 48.0988 290.919 48.2563 290.761 48.4139C273.408 65.6646 256.247 82.7258 239.651 99.2322C239.492 99.3899 239.334 99.5474 239.175 99.705C239.019 99.5452 238.863 99.3855 238.706 99.2259C232.89 93.286 227.118 87.4363 221.298 81.5383C215.42 75.5819 209.494 69.5763 203.425 63.3789L236.231 31.1252C234.485 29.2397 232.76 27.3758 231.035 25.5119C227.726 21.9358 224.417 18.3598 220.955 14.631C220.804 14.4675 220.651 14.3037 220.499 14.1395C220.338 14.2975 220.178 14.4529 220.017 14.6059C219.465 15.1327 218.917 15.6318 218.385 16.1158C217.75 16.6941 217.138 17.2509 216.571 17.808C213.559 20.7693 210.526 23.7088 207.492 26.6484C201.424 32.528 195.357 38.4076 189.462 44.4608C186.907 47.1658 185.149 47.156 182.428 44.4216C173.493 35.0497 164.361 26.0651 155.228 17.0806L155.226 17.0778C154.06 15.9059 152.699 14.7329 151.726 13.9506C148.877 16.8481 146.078 19.6002 143.254 22.3764C140.43 25.1528 137.582 27.9534 134.634 30.9477C145.349 41.718 156.442 52.6788 166.799 62.7111C166.96 62.8668 167.12 63.0223 167.281 63.1776C167.123 63.3356 166.965 63.4935 166.807 63.6514C162.897 67.5574 159.026 71.4251 155.155 75.2929C147.285 83.1571 139.413 91.0218 131.213 99.2099C131.055 99.3676 130.897 99.5255 130.739 99.6836C130.582 99.5243 130.426 99.3649 130.269 99.2055C115.96 84.6519 101.36 69.6643 85.8596 53.7522C83.6255 51.4589 81.3728 49.1463 79.0996 46.8131C79.0549 46.7672 79.0102 46.7213 78.9655 46.6755C78.9583 46.6681 78.9512 46.6608 78.944 46.6534C78.9214 46.6302 78.8987 46.6069 78.8761 46.5837C78.7428 46.447 78.6095 46.3101 78.4762 46.1732C78.4406 46.2082 78.405 46.2432 78.3695 46.2782C78.3447 46.3026 78.3198 46.327 78.295 46.3515C78.1963 46.4486 78.0974 46.546 77.9985 46.6436C77.8344 46.8054 77.67 46.9677 77.5052 47.1307C69.7963 54.7546 61.3163 63.657 52.8789 72.5147C44.9726 80.8149 37.1037 89.0757 29.9417 96.2086C26.9951 99.1056 25.2367 99.0958 22.5175 96.1672C12.9976 86.4026 3.28225 76.637 -6.43518 67.2598C-9.34976 64.3301 -9.14476 62.5832 -6.19919 59.8803C3.22905 50.804 12.6584 41.5335 21.8923 32.2619C22.8756 31.102 23.4767 28.3861 22.8948 27.6059C18.2347 22.3358 13.377 17.4529 8.13077 12.1795C2.21105 17.9995 -3.5646 23.6308 -9.40956 29.3296C-15.2462 35.0203 -21.1519 40.7784 -27.3392 46.8591C-27.4984 47.0156 -27.6578 47.1723 -27.8174 47.3292C-27.9712 47.1668 -28.1248 47.0044 -28.2783 46.8422ZM8.12551 13.1247C2.3689 18.782 -3.25642 24.2666 -8.94643 29.8144L-9.15431 30.0171C-15.072 35.7868 -21.0623 41.628 -27.3474 47.8072L-27.8345 48.2862L-28.3042 47.79C-35.115 40.5958 -41.7227 33.5365 -48.1229 26.6989C-52.3281 22.2063 -56.4437 17.8094 -60.4686 13.5327C-66.3615 19.3268 -71.5334 24.4256 -75.8389 29.17C-73.7049 31.36 -71.5524 33.5779 -69.3833 35.8128C-62.009 43.411 -54.4428 51.2068 -46.7609 58.7803C-45.2963 60.1554 -44.3334 61.4388 -44.2801 62.8686C-44.2262 64.3138 -45.1072 65.6544 -46.601 67.123L-46.6064 67.1284L-46.612 67.1336C-51.9107 72.1115 -57.0602 77.1511 -62.2013 82.1825C-65.6347 85.5428 -69.0644 88.8993 -72.5323 92.2314C-74.2328 93.9029 -76.1754 95.5755 -78.5232 97.5971C-79.1854 98.1672 -79.8798 98.7651 -80.6101 99.3986L-81.1384 99.8569L-81.574 99.3095C-82.2108 98.5091 -82.7537 97.7377 -83.2525 97.029C-83.3733 96.8573 -83.4915 96.6894 -83.6079 96.5256C-84.2114 95.6757 -84.7662 94.9347 -85.4043 94.2933L-85.4075 94.2901C-94.9977 84.5199 -104.674 74.8375 -114.323 65.1815C-119.136 60.3648 -123.943 55.5547 -128.73 50.7435C-129.905 49.6113 -130.746 48.8026 -131.437 48.2725C-132.131 47.7403 -132.564 47.5784 -132.92 47.5838C-133.279 47.5893 -133.72 47.7676 -134.424 48.3241C-135.124 48.8776 -135.978 49.7153 -137.167 50.8847C-155.439 69.0418 -173.906 87.1978 -192.372 105.16L-192.378 105.165L-192.384 105.171C-194.066 106.728 -195.844 108.232 -197.465 109.584C-197.805 109.868 -198.137 110.144 -198.46 110.413C-199.445 111.232 -200.343 111.977 -201.096 112.631C-190.174 123.975 -179.418 135.11 -168.73 146.173C-156.937 158.382 -145.227 170.503 -133.471 182.723C-132.856 182.132 -132.271 181.596 -131.706 181.079L-131.638 181.016C-130.949 180.386 -130.292 179.785 -129.637 179.14C-124.656 174.243 -119.655 169.37 -114.656 164.498C-104.664 154.76 -94.6766 145.026 -84.8584 135.116C-83.3654 133.551 -81.9698 132.595 -80.4534 132.604C-78.9365 132.612 -77.5511 133.584 -76.0749 135.167C-69.8653 141.668 -63.4868 147.993 -57.1007 154.326C-53.9036 157.496 -50.7047 160.668 -47.5242 163.865C-46.9169 164.475 -46.3656 165.131 -45.7829 165.839C-45.6947 165.946 -45.6058 166.055 -45.5157 166.164C-45.0065 166.785 -44.4601 167.45 -43.8086 168.187L-43.3802 168.672L-43.849 169.117C-44.6625 169.89 -45.4741 170.662 -46.2838 171.431C-57.0266 181.64 -67.4263 191.523 -77.3349 201.083C-71.8342 206.612 -66.6499 211.828 -60.7957 217.888L-60.0984 217.19C-49.6579 206.739 -38.8545 195.925 -27.6855 184.572L-27.2103 184.089L-26.7324 184.569C-20.9044 190.427 -15.1731 196.14 -9.58642 201.706L-9.13463 202.157C-3.87306 207.399 1.25888 212.513 6.2192 217.496L22.3538 201.633L19.5262 198.791C17.2858 196.539 15.0587 194.288 12.8354 192.041C6.18211 185.317 -0.437315 178.627 -7.2787 172.042L-7.28394 172.037L-7.28908 172.032C-8.55725 170.757 -9.42 169.566 -9.44411 168.259C-9.46861 166.93 -8.62849 165.739 -7.23405 164.465C2.97454 154.814 12.9857 145.165 22.8016 135.321L22.8134 135.309L22.8258 135.298C24.1252 134.119 25.3182 133.387 26.5866 133.394C27.8658 133.402 29.0042 134.157 30.1989 135.358L30.2043 135.363C34.3767 139.655 38.6475 143.899 42.9232 148.148L42.9263 148.151C47.1988 152.397 51.4761 156.647 55.6561 160.947C63.4397 168.771 71.0365 176.593 78.8067 184.594L78.8942 184.684C79.5931 184.011 80.2278 183.426 80.8096 182.894L81.0226 182.699C81.6512 182.124 82.2111 181.612 82.7316 181.1L82.7347 181.097L83.0236 180.817C98.2469 166.042 113.274 151.457 128.302 136.49L128.305 136.487C129.694 135.121 130.987 134.225 132.416 134.203C133.854 134.18 135.194 135.044 136.675 136.533L136.68 136.538C146.192 146.295 155.902 155.86 165.617 165.43C167 166.722 167.863 167.964 167.855 169.352C167.848 170.732 166.979 172.012 165.584 173.384L165.579 173.389L165.573 173.394C158.65 179.911 151.949 186.536 145.295 193.114C143.084 195.299 140.879 197.48 138.672 199.649L138.656 199.665L138.639 199.679C137.312 200.821 136.12 202.112 135.191 203.186C138.877 206.781 142.346 210.308 145.937 213.958C147.705 215.756 149.503 217.584 151.371 219.465C159.864 210.925 168.549 202.2 177.423 193.476L177.455 193.444C179.294 191.636 180.715 190.239 181.91 189.3C183.108 188.358 184.19 187.783 185.352 187.789C186.513 187.796 187.589 188.383 188.777 189.338C189.961 190.29 191.366 191.704 193.185 193.532L193.217 193.564C201.992 202.384 210.578 211.203 218.974 219.834C224.729 214.003 229.969 208.846 235.366 203.54C234.8 202.822 234.029 201.92 233.26 201.147C224.322 192.163 215.389 183.184 206.262 174.399C204.611 172.838 203.497 171.407 203.416 169.831C203.333 168.223 204.33 166.731 206.119 165.07L206.12 165.069C215.73 156.2 224.952 147.134 233.981 137.871C235.655 136.033 237.149 134.913 238.799 134.892C240.445 134.872 241.985 135.951 243.737 137.713L243.744 137.719C250.928 145.136 258.26 152.506 265.596 159.88L265.601 159.885C272.934 167.256 280.27 174.63 287.46 182.053L287.467 182.059C289.21 183.909 290.404 184.641 291.473 184.666C292.537 184.691 293.731 184.019 295.492 182.289C304.02 173.683 312.686 165.195 321.365 156.693C327.874 150.317 334.391 143.934 340.864 137.487C342.055 136.22 343.238 135.325 344.561 135.24C345.919 135.154 347.173 135.93 348.475 137.336C358.182 147.289 367.889 157.046 377.791 166.609C379.28 168.007 380.108 169.315 380.006 170.724C379.906 172.098 378.932 173.317 377.554 174.576C368.334 183.448 359.308 192.322 350.083 201.392C349.587 201.96 349.091 202.494 348.66 202.959C348.576 203.05 348.494 203.138 348.416 203.223C348.14 203.521 347.91 203.774 347.731 203.98C350.404 206.751 353.041 209.401 355.769 212.144C358.446 214.835 361.211 217.615 364.18 220.679C364.193 220.654 364.206 220.63 364.219 220.605L364.28 220.488C364.439 220.185 364.614 219.849 364.805 219.509C365.231 218.746 365.76 217.905 366.418 217.257C371.922 211.717 377.603 206.174 383.279 200.637C386.115 197.869 388.951 195.103 391.762 192.339L391.766 192.335L391.77 192.332C392.232 191.891 392.657 191.482 393.048 191.104C393.967 190.218 394.702 189.508 395.311 188.995C396.156 188.281 396.943 187.774 397.821 187.833C398.68 187.891 399.413 188.483 400.19 189.237C400.59 189.625 401.042 190.1 401.562 190.646L401.585 190.67C402.118 191.23 402.729 191.872 403.452 192.598C406.856 196.02 410.298 199.417 413.748 202.823C418.945 207.953 424.162 213.103 429.299 218.384C430.531 219.622 431.491 220.147 432.321 220.169C433.122 220.192 434.024 219.747 435.153 218.451L435.158 218.446L435.163 218.44C438.52 214.751 441.877 211.451 445.624 208.155C446.873 207.02 447.374 206.17 447.396 205.418C447.418 204.676 446.976 203.78 445.649 202.542L445.645 202.538L445.641 202.535C440.973 198.037 436.403 193.444 431.839 188.856L431.835 188.852C427.268 184.262 422.708 179.678 418.05 175.191C416.48 173.711 415.553 172.363 415.592 170.912C415.631 169.472 416.618 168.193 418.094 166.837C427.912 157.378 437.724 147.924 447.341 138.276C448.521 137.02 449.659 136.113 450.965 136.027C452.3 135.94 453.556 136.719 454.942 138.112L454.946 138.116L454.95 138.121C463.107 146.612 471.482 154.995 479.836 163.355C482.618 166.14 485.398 168.922 488.167 171.705C493.249 176.813 498.146 181.919 502.858 186.844C526.306 163.603 549.184 141.109 572.247 118.435C572.178 118.353 572.108 118.27 572.038 118.187L571.957 118.09C571.69 117.773 571.416 117.452 571.147 117.182L571.145 117.18M571.145 117.18L507.023 53.3113L507.021 53.3092C505.781 52.0634 504.994 51.7181 504.354 51.7635C503.672 51.8118 502.899 52.3078 501.713 53.4739L455.156 99.2471C453.86 100.52 452.662 101.322 451.35 101.315C450.039 101.307 448.849 100.493 447.568 99.2048L447.563 99.2001C437.853 89.2442 428.143 79.4846 418.239 69.919C416.669 68.439 415.742 67.0914 415.781 65.6402C415.82 64.1999 416.806 62.9209 418.283 61.5647C427.699 52.5001 437.116 43.2417 446.339 33.9821C446.739 33.4995 447.141 32.6441 447.372 31.79C447.488 31.364 447.551 30.9713 447.558 30.6591C447.561 30.5035 447.55 30.3827 447.532 30.2953C447.519 30.2359 447.506 30.2034 447.499 30.1893C444.532 26.8205 441.315 23.5453 437.999 20.1683C436.49 18.6318 434.96 17.0742 433.424 15.4771C433.073 15.7854 432.744 16.074 432.432 16.3471C431.212 17.4166 430.264 18.2466 429.416 19.0808L429.411 19.0857L429.122 19.3638C419.793 28.3443 410.661 37.1358 401.527 46.3069L401.522 46.3119C400.419 47.3966 399.326 48.1382 398.126 48.1629C396.905 48.1881 395.808 47.4715 394.702 46.2601C391.407 42.8512 388.014 39.4891 384.615 36.1211L384.612 36.1182C381.213 32.7506 377.808 29.377 374.501 25.9544L374.495 25.9484C371.684 22.9656 368.997 19.7313 366.451 16.6658C365.976 16.0936 365.506 15.5273 365.04 14.9696C364.106 15.9157 363.198 16.8358 362.311 17.7341C357.267 22.8446 352.917 27.2511 348.346 31.7538C352.478 35.9829 356.666 40.2683 360.855 44.5535C367.35 51.1996 373.845 57.8454 380.131 64.2807L380.594 64.7549L380.125 65.2234C377.133 68.2134 374.165 71.1794 371.197 74.1454C362.279 83.0584 353.361 91.9712 343.78 101.536L343.299 102.016L342.825 101.529C326.073 84.3036 308.939 66.8845 291.231 48.8917C273.713 66.3063 256.391 83.5278 239.648 100.18L239.169 100.657L238.696 100.174C232.772 94.1209 226.895 88.165 220.969 82.1593L220.82 82.0089C214.943 76.0527 209.016 70.0463 202.946 63.848L202.478 63.3699L235.297 31.1033C233.701 29.38 232.122 27.6735 230.543 25.9671C227.237 22.3944 223.931 18.8221 220.473 15.0972C219.943 15.6032 219.418 16.0821 218.913 16.542C218.247 17.1477 217.619 17.7175 217.041 18.2861C214.022 21.2549 210.984 24.1983 207.948 27.1397C201.887 33.0138 195.833 38.8799 189.946 44.9251C188.644 46.3028 187.396 47.1591 186.004 47.1513C184.621 47.1436 183.334 46.2824 181.953 44.8944L181.948 44.8893L181.943 44.8842C173.016 35.5204 163.89 26.5424 154.755 17.5557L154.75 17.5506C153.783 16.5785 152.675 15.6014 151.775 14.8562C149.069 17.5994 146.406 20.2182 143.724 22.8548C141.049 25.4848 138.355 28.1327 135.578 30.9455C146.311 41.7288 157.406 52.6863 167.747 62.6959L168.237 63.1701L167.755 63.6519C163.689 67.7132 159.668 71.7316 155.646 75.7501C147.618 83.7715 139.59 91.7933 131.213 100.158L130.735 100.635L130.261 100.154C115.8 85.4487 101.049 70.3058 85.3787 54.2193C83.1646 51.9464 80.9322 49.6547 78.6796 47.3427C78.6635 47.3584 78.6457 47.3751 78.6264 47.3916C78.611 47.4049 78.5921 47.4204 78.5704 47.4363C78.5493 47.4517 78.5201 47.4717 78.4841 47.4915C78.4504 47.51 78.3943 47.5376 78.3211 47.5568C78.2567 47.5737 78.1477 47.5925 78.017 47.5674C70.7109 54.7913 62.7069 63.1704 54.6947 71.5805C54.251 72.0463 53.8072 72.5122 53.3635 72.9779C45.4588 81.2764 37.5837 89.5439 30.4148 96.6836L30.4117 96.6866C28.9247 98.1486 27.5776 99.0509 26.1406 99.0429C24.6955 99.0348 23.4077 98.1098 22.0323 96.6299C12.517 86.8702 2.80853 77.1115 -6.90068 67.7422L-6.90562 67.7374L-6.91043 67.7326C-8.38793 66.2475 -9.25417 64.8971 -9.18436 63.4526C-9.11531 62.0233 -8.13812 60.7505 -6.65811 59.3916C2.75776 50.327 12.1747 41.0687 21.3969 31.8093C21.784 31.3414 22.1398 30.5023 22.3254 29.6489C22.4175 29.2254 22.4601 28.832 22.4518 28.5171C22.4436 28.2103 22.3894 28.0637 22.3647 28.0184C17.8673 22.9346 13.1833 18.2092 8.12551 13.1247M8.11053 116.101L7.63816 116.565C-3.75284 127.765 -15.3415 139.351 -27.1278 151.325L-27.4708 151.674L-27.9073 151.454C-27.9727 151.421 -28.0666 151.382 -28.2027 151.329C-28.2284 151.319 -28.2555 151.308 -28.2837 151.298C-28.3937 151.255 -28.5205 151.206 -28.6453 151.153C-28.9452 151.027 -29.3453 150.838 -29.6396 150.542C-40.3229 139.804 -51.0037 129.068 -61.6851 118.526C-62.5959 117.709 -63.28 116.786 -63.3706 115.731C-63.4646 114.637 -62.9063 113.626 -61.8499 112.688C-59.1948 110.126 -56.5386 107.551 -53.8787 104.972C-45.924 97.2599 -37.9358 89.5151 -29.8409 81.9906C-29.5206 81.6799 -29.071 81.4999 -28.6477 81.3938C-28.2044 81.2827 -27.7073 81.2324 -27.2225 81.2351C-26.7376 81.2378 -26.2411 81.2937 -25.7991 81.4097C-25.3736 81.5214 -24.9222 81.7085 -24.605 82.0273L-24.6008 82.0315C-17.294 89.5074 -10.0736 97.0726 -2.8851 104.604C0.632742 108.29 4.1429 111.968 7.65176 115.623L8.11053 116.101ZM-29.3785 82.4762C-37.4699 89.9972 -45.4529 97.7369 -53.4082 105.45C-56.0724 108.033 -58.7335 110.613 -61.3946 113.18C-63.3579 114.918 -62.9757 116.474 -61.2259 118.037C-50.538 128.585 -39.8512 139.327 -29.1643 150.07C-28.8934 150.342 -28.432 150.521 -28.0453 150.671C-27.8774 150.736 -27.7236 150.796 -27.6056 150.855C-15.8169 138.879 -4.22559 127.289 7.16814 116.087C3.65632 112.429 0.144594 108.75 -3.37403 105.063C-10.5607 97.5331 -17.7762 89.9731 -25.0802 82.5001C-25.8575 81.7189 -28.5927 81.7036 -29.3785 82.4762ZM361.226 116.502L361.703 116.033C362.699 115.054 363.901 114.008 365.16 112.912C365.415 112.691 365.671 112.468 365.929 112.242C367.473 110.893 369.073 109.462 370.524 107.94L370.535 107.929L370.546 107.919C374.469 104.158 378.344 100.348 382.223 96.5351L382.228 96.5303C386.107 92.7164 389.989 88.899 393.921 85.1299L393.933 85.1192L393.944 85.1091C394.148 84.9313 394.347 84.7474 394.551 84.5588L394.578 84.5338C394.788 84.339 395.006 84.1388 395.225 83.9504C395.657 83.578 396.14 83.2135 396.683 82.9922C397.246 82.7626 397.867 82.6899 398.544 82.89C399.201 83.0845 399.854 83.5202 400.532 84.2015L400.538 84.2079L400.544 84.2143C410.477 94.7435 420.411 105.105 430.035 115.143L432.655 117.876L432.199 118.34C421.186 129.547 409.794 140.94 398.585 152.151L397.534 153.202L397.06 152.725C385.791 141.397 374.131 129.677 361.694 116.98L361.226 116.502ZM222.168 117.574L221.759 117.961C216.265 123.17 210.965 128.38 205.661 133.596L205.657 133.6L205.652 133.603C203.312 135.827 200.993 138.092 198.676 140.354C195.187 143.762 191.703 147.164 188.163 150.412L188.144 150.429L188.124 150.445C187.498 150.937 186.383 151.295 185.384 151.442C184.87 151.518 184.339 151.545 183.866 151.492C183.419 151.442 182.903 151.308 182.546 150.952C175.028 143.655 167.679 136.182 160.338 128.715C156.669 124.984 153.002 121.254 149.315 117.549L149.119 117.351L149.12 117.091C149.12 117.09 149.12 117.089 149.12 117.088C149.118 117.069 149.114 117.026 149.103 116.949C149.082 116.796 149.037 116.517 148.944 116.038L148.875 115.684L149.132 115.432C150.566 114.021 152.138 112.567 153.749 111.076L153.909 110.928C155.579 109.383 157.29 107.797 158.952 106.163L158.958 106.157C166.615 98.8227 174.273 91.2935 181.935 83.7606C182.902 82.8095 183.877 81.974 184.995 81.7951C186.193 81.6034 187.325 82.1805 188.546 83.407C188.547 83.4077 188.547 83.4083 188.548 83.409L220.024 114.463L220.029 114.467C220.371 114.812 220.644 115.201 220.918 115.626C221.027 115.796 221.133 115.966 221.244 116.144C221.423 116.432 221.616 116.741 221.857 117.104L222.168 117.574ZM188.073 83.8818C185.741 81.5381 184.369 82.3074 182.405 84.2387C174.743 91.771 167.082 99.3033 159.422 106.641C157.7 108.334 155.926 109.975 154.208 111.565C152.594 113.058 151.029 114.507 149.602 115.91C149.792 116.882 149.791 117.076 149.791 117.076C153.482 120.787 157.152 124.519 160.822 128.252C168.162 135.717 175.502 143.182 183.017 150.475C183.794 151.256 186.728 150.69 187.709 149.918C191.245 146.673 194.712 143.288 198.193 139.889C200.511 137.626 202.835 135.356 205.191 133.118L205.191 133.117C210.495 127.902 215.799 122.688 221.298 117.475C221.055 117.107 220.85 116.779 220.665 116.482C220.261 115.835 219.953 115.342 219.553 114.94L188.073 83.8818ZM504.013 82.9286L504.49 83.4329C510.22 89.4849 515.901 95.4397 521.583 101.396C527.265 107.351 532.948 113.308 538.68 119.362L539.132 119.84L538.663 120.301C538.664 120.299 538.664 120.3 538.662 120.302C538.657 120.308 538.642 120.325 538.613 120.361C538.576 120.406 538.529 120.466 538.471 120.541C538.405 120.627 538.325 120.731 538.235 120.847C538.172 120.929 538.103 121.017 538.03 121.109C537.679 121.553 537.216 122.109 536.696 122.621C533.48 125.782 530.246 128.919 527.014 132.054C520.559 138.314 514.111 144.568 507.831 151C506.429 152.476 505.084 153.376 503.621 153.368C502.159 153.36 500.825 152.445 499.44 150.955C493.097 144.45 486.757 138.12 480.412 131.786C477.238 128.617 474.063 125.447 470.886 122.254C470.372 121.737 469.916 121.175 469.57 120.728C469.397 120.504 469.247 120.303 469.135 120.155C469.077 120.079 469.031 120.019 468.995 119.973C468.954 119.921 468.941 119.908 468.946 119.912L468.482 119.446L471.758 116.061C482.356 105.11 492.693 94.4293 503.526 83.4235L504.013 82.9286ZM499.925 150.492C502.644 153.421 504.598 153.432 507.349 150.534C513.637 144.094 520.097 137.828 526.558 131.562C529.788 128.429 533.018 125.297 536.226 122.143C536.905 121.475 537.491 120.715 537.853 120.245C538.015 120.034 538.132 119.882 538.193 119.823C532.462 113.77 526.78 107.814 521.098 101.858C515.569 96.0624 510.039 90.2665 504.465 84.3809C504.311 84.2186 504.157 84.0563 504.004 83.8938C503.847 84.0533 503.69 84.2126 503.533 84.3719C492.875 95.2052 482.688 105.731 472.244 116.522L469.421 119.44C469.481 119.5 469.596 119.653 469.756 119.865C470.113 120.339 470.69 121.106 471.362 121.781C474.535 124.971 477.709 128.14 480.883 131.308C487.23 137.645 493.578 143.982 499.925 150.492ZM-99.3637 115.898L-99.8158 116.351C-105.122 121.664 -110.673 127.17 -116.271 132.723L-116.412 132.862C-121.965 138.37 -127.563 143.922 -133.017 149.38L-133.492 149.855L-133.967 149.378C-139.7 143.616 -145.433 137.804 -151.018 132.141L-151.47 131.683C-156.898 126.179 -162.183 120.821 -167.192 115.786L-167.655 115.32L-167.199 114.848C-156.59 103.838 -145.391 92.0546 -133.797 79.6905L-133.306 79.167L-132.818 79.6924C-121.552 91.7973 -110.479 103.709 -99.7948 115.426L-99.3637 115.898ZM291.437 81.736L291.922 82.2487C296.274 86.8458 300.568 91.4123 304.794 95.907C311.704 103.256 318.433 110.412 324.942 117.197L325.392 117.666L324.937 118.13C314.326 128.948 302.929 140.541 291.531 151.939L291.052 152.419L290.578 151.934C284.549 145.769 278.51 139.538 272.621 133.462C267.514 128.192 262.52 123.04 257.744 118.149L257.294 117.688L257.737 117.22C268.153 106.206 279.355 94.4194 290.95 82.2472L291.437 81.736ZM114.196 117.274L113.723 117.739C107.829 123.534 101.354 129.901 94.8766 136.655L94.8646 136.667L94.852 136.679C93.0668 138.358 91.2988 140.08 89.5322 141.802C86.8651 144.4 84.2009 146.996 81.4845 149.434L81.4683 149.449L81.4511 149.462C80.8253 149.954 79.7101 150.312 78.7118 150.459C78.1979 150.535 77.6669 150.562 77.1931 150.509C76.7457 150.459 76.2295 150.325 75.8723 149.968C68.6076 142.796 61.4281 135.536 54.2808 128.308C50.7195 124.706 47.1663 121.113 43.6145 117.543C43.4511 117.379 43.3159 117.166 43.2226 116.978C43.1401 116.811 43.0314 116.548 43.0329 116.287L43.0344 116.008L43.2332 115.813C49.3184 109.83 55.209 103.846 61.104 97.8568L61.1078 97.8529L61.1117 97.8491C62.2816 96.6988 63.4537 95.5346 64.6302 94.3659C68.1816 90.838 71.7736 87.2696 75.4714 83.9252L75.4836 83.9142L75.4963 83.9038C76.2085 83.3204 77.3612 82.9089 78.361 82.7108C78.8716 82.6097 79.3843 82.5555 79.827 82.5723C80.0481 82.5807 80.2708 82.6074 80.4753 82.6646C80.6728 82.7199 80.9049 82.8179 81.0907 83.0046C89.124 91.0795 97.0513 99.3672 105.102 107.784C107.961 110.773 110.836 113.778 113.737 116.797L114.196 117.274ZM76.3445 149.492C77.1217 150.273 80.0556 149.707 81.0367 148.935C83.7479 146.502 86.3894 143.928 89.0452 141.34C90.8131 139.617 92.5874 137.888 94.3927 136.191C100.877 129.429 107.36 123.055 113.253 117.261C110.35 114.241 107.474 111.233 104.613 108.243C96.5643 99.8278 88.6436 91.5472 80.6154 83.4774C80.0325 82.8915 77.0987 83.4578 75.9211 84.4224C72.2361 87.7554 68.6598 91.3079 65.1112 94.833C63.9327 96.0037 62.7572 97.1715 61.5817 98.3271L61.5808 98.3281C55.6867 104.316 49.7927 110.304 43.7032 116.291C43.7022 116.485 43.8954 116.875 44.0897 117.07C47.6445 120.643 51.1992 124.238 54.761 127.84C61.9072 135.067 69.0821 142.322 76.3445 149.492ZM397.063 151.777C397.22 151.936 397.378 152.094 397.535 152.252L398.107 151.681C409.317 140.469 420.709 129.077 431.721 117.87L429.557 115.613C419.932 105.573 409.994 95.2079 400.057 84.6743C397.832 82.4382 396.498 83.6719 395.004 85.0528C394.802 85.2399 394.596 85.4297 394.385 85.6139C390.457 89.3795 386.577 93.1939 382.697 97.0084C378.818 100.823 374.938 104.637 371.01 108.403C369.287 110.209 367.365 111.882 365.595 113.423C364.536 114.344 363.531 115.219 362.656 116.046C362.518 116.176 362.384 116.305 362.253 116.433C362.226 116.459 362.199 116.485 362.173 116.511C374.434 129.028 385.94 140.597 397.063 151.777ZM-133.308 80.1491C-133.462 80.3126 -133.615 80.4759 -133.768 80.6392C-145.2 92.8267 -156.246 104.446 -166.717 115.313C-161.706 120.35 -156.419 125.71 -150.99 131.215C-145.416 136.866 -139.692 142.67 -133.964 148.43C-133.807 148.589 -133.649 148.747 -133.491 148.906C-133.333 148.748 -133.175 148.59 -133.017 148.432C-127.713 143.126 -122.277 137.735 -116.886 132.388C-111.239 126.787 -105.64 121.234 -100.29 115.877C-110.827 104.323 -121.743 92.5768 -132.851 80.641C-133.003 80.4771 -133.156 80.3131 -133.308 80.1491ZM290.588 150.986C290.745 151.146 290.901 151.305 291.057 151.465C291.215 151.307 291.373 151.149 291.531 150.991C302.768 139.748 313.995 128.329 324.458 117.661C317.947 110.874 311.213 103.712 304.3 96.36C300.225 92.0255 296.087 87.6252 291.897 83.1971C291.743 83.0347 291.59 82.8721 291.436 82.7096C291.281 82.8717 291.127 83.0337 290.973 83.1956C279.543 95.1953 268.501 106.814 258.224 117.68C263.008 122.58 268.001 127.732 273.107 133C278.838 138.914 284.711 144.974 290.588 150.986Z" fill="#9D884E" fill-opacity="0.2"/>
</svg>
