<svg width="280" height="239" viewBox="0 0 280 239" fill="none" xmlns="http://www.w3.org/2000/svg">
<path fill-rule="evenodd" clip-rule="evenodd" d="M223.72 46.2915C217.073 39.2667 210.623 32.3758 204.369 25.6949C200.16 21.1981 196.04 16.7964 192.009 12.5131C191.856 12.3501 191.702 12.1874 191.549 12.0248L191.548 12.0257C191.389 12.1826 191.23 12.339 191.071 12.4949C184.984 18.4802 179.647 23.7411 175.241 28.6383C177.516 30.9718 179.813 33.3387 182.13 35.7258C189.507 43.327 197.082 51.1323 204.772 58.7133C207.688 61.4487 207.873 63.1978 204.927 66.0949C199.625 71.0753 194.464 76.1263 189.317 81.1634C185.883 84.5239 182.456 87.8782 178.997 91.2013C177.313 92.8568 175.392 94.511 173.047 96.5305C172.537 96.9698 172.007 97.4263 171.454 97.904C171.287 98.0484 171.118 98.1948 170.947 98.3433C170.805 98.1648 170.668 97.9881 170.535 97.8131C170.084 97.2198 169.681 96.6472 169.297 96.1009C168.555 95.0465 167.882 94.0899 167.068 93.2718C157.475 83.4997 147.796 73.8135 138.145 64.1563C133.331 59.3389 128.524 54.5286 123.739 49.7185C121.423 47.4875 120.257 46.3643 119.093 46.3662C117.912 46.3681 116.734 47.5269 114.36 49.8608C96.0888 68.0172 77.6224 86.1727 59.1572 104.134C57.1408 106 54.9822 107.794 53.1129 109.348C52.1159 110.176 51.2012 110.937 50.4342 111.603C50.2582 111.756 50.0901 111.904 49.9305 112.046C50.0856 112.207 50.2407 112.368 50.3958 112.529C61.3278 123.883 72.0904 135.025 82.7838 146.094C94.5759 158.301 106.284 170.421 118.042 182.643C118.196 182.804 118.351 182.965 118.506 183.126C118.669 182.966 118.829 182.811 118.987 182.659C119.621 182.051 120.224 181.498 120.812 180.961C121.498 180.332 122.163 179.724 122.827 179.071C127.804 174.178 132.802 169.307 137.8 164.436C147.797 154.693 157.794 144.951 167.618 135.034C170.566 131.943 172.519 131.954 175.433 135.078C181.649 141.586 188.04 147.924 194.431 154.261C197.626 157.429 200.821 160.598 203.995 163.788C204.665 164.461 205.27 165.199 205.959 166.038C206.468 166.658 207.023 167.334 207.683 168.081C206.869 168.855 206.057 169.627 205.246 170.397C194.502 180.608 184.098 190.495 174.185 200.058C174.024 200.213 173.863 200.369 173.703 200.524C173.861 200.682 174.018 200.841 174.176 200.999C179.682 206.534 184.867 211.751 190.723 217.813C190.878 217.973 191.033 218.134 191.189 218.296L192.37 217.113C202.664 206.809 213.312 196.15 224.316 184.969C224.472 184.81 224.629 184.651 224.786 184.491C224.944 184.65 225.101 184.808 225.259 184.966C231.078 190.813 236.8 196.514 242.374 202.069C247.806 207.482 253.099 212.755 258.207 217.89L275.298 201.086L271.995 197.766C269.757 195.517 267.532 193.268 265.31 191.022C258.655 184.297 252.028 177.598 245.18 171.008C242.654 168.469 242.468 166.914 245.217 164.404C255.43 154.749 265.448 145.093 275.272 135.242C277.824 132.925 279.387 132.934 281.719 135.278C285.896 139.574 290.171 143.822 294.446 148.07C298.72 152.318 302.995 156.567 307.172 160.863C314.955 168.686 322.552 176.509 330.325 184.513L330.875 185.079C331.038 184.918 331.198 184.762 331.355 184.611C332.132 183.862 332.831 183.223 333.47 182.639C334.096 182.065 334.666 181.545 335.195 181.024L335.483 180.744C350.707 165.969 365.738 151.381 380.771 136.409C383.521 133.705 385.281 133.52 388.195 136.45C397.714 146.214 407.43 155.785 417.146 165.356L417.147 165.356C419.868 167.896 419.858 169.644 417.108 172.348C410.178 178.871 403.468 185.505 396.814 192.084C394.603 194.269 392.399 196.448 390.195 198.615C388.625 199.966 387.249 201.512 386.265 202.672C390.116 206.414 393.712 210.069 397.445 213.865C399.216 215.665 401.017 217.496 402.891 219.383C403.048 219.541 403.206 219.7 403.364 219.859C403.521 219.7 403.679 219.542 403.836 219.383C412.331 210.843 421.015 202.119 429.887 193.396C433.619 189.726 435.485 187.892 437.342 187.902C439.198 187.912 441.043 189.768 444.735 193.478C453.51 202.299 462.097 211.118 470.496 219.753C470.652 219.913 470.808 220.073 470.963 220.233C471.121 220.073 471.278 219.914 471.434 219.756C477.339 213.772 482.702 208.499 488.252 203.042C487.67 202.262 486.7 201.091 485.728 200.115C476.791 191.131 467.853 182.147 458.719 173.356C455.414 170.23 455.034 168.285 458.569 165.003C468.192 156.122 477.425 147.044 486.464 137.771C489.806 134.099 491.76 134.11 495.257 137.626C502.445 145.046 509.78 152.419 517.115 159.792C524.45 167.165 531.785 174.537 538.972 181.958C542.469 185.668 544.423 185.678 547.959 182.202C556.489 173.594 565.147 165.114 573.822 156.616C580.333 150.239 586.854 143.851 593.34 137.392C595.698 134.88 597.459 134.501 599.984 137.234C609.698 147.194 619.412 156.959 629.324 166.531C632.24 169.267 631.839 171.013 629.09 173.522C619.86 182.403 610.826 191.286 601.595 200.361L601.588 200.368C601.094 200.935 600.6 201.468 600.164 201.938C599.558 202.59 599.064 203.123 598.835 203.46C601.652 206.389 604.421 209.172 607.287 212.053C610.008 214.789 612.817 217.612 615.838 220.733C615.999 220.898 616.16 221.065 616.321 221.232C616.428 221.057 616.542 220.85 616.663 220.622C616.729 220.499 616.796 220.369 616.866 220.235C617.384 219.245 618.033 218.004 618.884 217.168C624.385 211.63 630.06 206.093 635.735 200.557C638.573 197.789 641.41 195.02 644.226 192.252C647.344 189.282 648.578 187.879 649.742 187.935C650.924 187.992 652.033 189.554 654.97 192.506C658.384 195.937 661.829 199.338 665.28 202.744C670.472 207.869 675.678 213.008 680.813 218.287C683.339 220.826 685.292 221.031 687.651 218.325C690.993 214.653 694.333 211.37 698.063 208.089C700.616 205.772 700.821 204.025 698.1 201.485C693.436 196.992 688.87 192.402 684.303 187.813C679.737 183.223 675.171 178.633 670.507 174.14C667.397 171.209 667.602 169.462 670.548 166.76L670.549 166.759C680.37 157.296 690.191 147.833 699.818 138.176C702.177 135.664 703.742 135.284 706.462 138.018C714.624 146.515 723.006 154.904 731.361 163.266C734.142 166.049 736.92 168.829 739.686 171.61C744.765 176.715 749.662 181.82 754.376 186.748C754.53 186.909 754.685 187.071 754.839 187.232C754.998 187.075 755.157 186.917 755.315 186.76C778.758 163.524 801.632 141.034 824.692 118.363C824.847 118.21 825.003 118.057 825.159 117.904L825.17 117.893C825.16 117.883 825.15 117.873 825.14 117.863C824.971 117.689 824.768 117.447 824.546 117.183C824.258 116.84 823.937 116.459 823.616 116.136L759.494 52.2676C756.968 49.7287 755.598 50.1095 753.241 52.4272L706.682 98.2021C704.129 100.713 702.565 100.704 700.04 98.1653C690.326 88.2057 680.611 78.4404 670.699 68.8682C667.589 65.9376 667.794 64.1906 670.74 61.4877C680.169 52.4111 689.598 43.1403 698.833 33.8683C699.816 32.7084 700.613 29.9936 700.031 29.2134C697.044 25.8193 693.795 22.5107 690.459 19.1142C688.807 17.4322 687.134 15.7288 685.461 13.9828C684.936 14.448 684.452 14.8716 684.003 15.2649C682.776 16.3401 681.808 17.1881 680.945 18.0366L680.649 18.3217C671.323 27.2993 662.188 36.0938 653.05 45.2687C650.889 47.3932 649.325 47.5788 647.189 45.2362C643.886 41.8189 640.486 38.4496 637.085 35.0803C633.685 31.7109 630.285 28.3416 626.982 24.9243C624.187 21.9586 621.518 18.7454 618.973 15.6815C618.482 15.09 617.995 14.504 617.513 13.9265C617.369 13.7535 617.225 13.5813 617.081 13.4099C616.923 13.5703 616.765 13.73 616.608 13.889C615.658 14.851 614.735 15.7859 613.834 16.6983C608.614 21.987 604.142 26.5175 599.399 31.1812C603.669 35.5517 608.001 39.9846 612.334 44.4175C618.842 51.0769 625.351 57.7364 631.649 64.1847C628.654 67.1774 625.684 70.146 622.713 73.1146C613.945 81.8781 605.176 90.6415 595.777 100.025C595.619 100.183 595.461 100.341 595.303 100.499C595.147 100.339 594.991 100.178 594.835 100.018C578.23 82.9471 561.248 65.6832 543.705 47.8576C543.548 47.6984 543.391 47.5391 543.235 47.3798C543.076 47.5374 542.918 47.6949 542.759 47.8524C525.405 65.1037 508.244 82.1656 491.647 98.6725C491.489 98.8301 491.33 98.9877 491.172 99.1453C491.016 98.9855 490.859 98.8258 490.703 98.6662C484.887 92.7265 479.115 86.877 473.295 80.9792C467.418 75.023 461.492 69.0176 455.423 62.8204L488.23 30.5656C486.484 28.6801 484.759 26.8163 483.034 24.9525C479.725 21.3766 476.416 17.8007 472.955 14.072C472.803 13.9084 472.651 13.7446 472.498 13.5805C472.338 13.7385 472.177 13.8938 472.017 14.0468C471.465 14.5737 470.916 15.0728 470.384 15.5568C469.749 16.1351 469.137 16.692 468.571 17.2491C465.558 20.2105 462.525 23.1501 459.491 26.0898C453.423 31.9696 447.355 37.8494 441.46 43.9028C438.905 46.6079 437.147 46.5981 434.427 43.8638C425.492 34.4923 416.36 25.508 407.228 16.5237L407.225 16.5209C406.059 15.3491 404.698 14.1762 403.725 13.3939C400.876 16.2915 398.077 19.0437 395.253 21.82C392.429 24.5965 389.581 27.3972 386.633 30.3915C397.348 41.1615 408.44 52.122 418.797 62.1539C418.958 62.3096 419.118 62.4651 419.279 62.6203C419.12 62.7783 418.962 62.9363 418.804 63.0942C414.894 67.0003 411.024 70.8681 407.152 74.736C399.282 82.6005 391.41 90.4655 383.21 98.6538C383.052 98.8116 382.894 98.9695 382.736 99.1275C382.579 98.9682 382.422 98.8089 382.266 98.6495C367.957 84.0964 353.358 69.1093 337.858 53.1977C335.624 50.9044 333.371 48.592 331.098 46.2588C331.053 46.213 331.009 46.1671 330.964 46.1212C330.957 46.1138 330.949 46.1065 330.942 46.0992C330.92 46.0759 330.897 46.0527 330.874 46.0294C330.741 45.8927 330.608 45.7559 330.474 45.619C330.439 45.6539 330.403 45.6889 330.368 45.7239C330.343 45.7483 330.318 45.7728 330.293 45.7972C330.195 45.8944 330.096 45.9918 329.997 46.0894C329.833 46.2511 329.668 46.4135 329.504 46.5765C321.794 54.2007 313.314 63.1034 304.876 71.9613C296.97 80.2617 289.101 88.5229 281.938 95.6559C278.992 98.5531 277.233 98.5433 274.514 95.6148C264.995 85.8506 255.28 76.0853 245.562 66.7084C242.648 63.7788 242.853 62.0319 245.799 59.3289C255.227 50.2523 264.657 40.9815 273.891 31.7095C274.874 30.5496 275.476 27.8337 274.894 27.0536C270.234 21.7836 265.376 16.9009 260.13 11.6276C254.21 17.4478 248.434 23.0793 242.589 28.7783C236.753 34.4692 230.847 40.2275 224.659 46.3085C224.5 46.4649 224.34 46.6216 224.181 46.7785C224.027 46.6161 223.873 46.4538 223.72 46.2915ZM260.125 12.5728C254.368 18.2303 248.743 23.7152 243.052 29.2631L242.845 29.4658C236.927 35.2357 230.936 41.0771 224.651 47.2566L224.164 47.7355L223.694 47.2394C216.883 40.0454 210.276 32.9863 203.876 26.149C199.671 21.6565 195.555 17.2597 191.531 12.9832C185.638 18.7775 180.466 23.8764 176.16 28.6209C178.294 30.8109 180.446 33.0287 182.615 35.2636C189.989 42.8615 197.555 50.657 205.237 58.2302C206.702 59.6054 207.664 60.8887 207.718 62.3185C207.771 63.7637 206.89 65.1043 205.397 66.573L205.391 66.5783L205.386 66.5835C200.087 71.5616 194.937 76.6015 189.796 81.633C186.362 84.9934 182.932 88.35 179.464 91.6822C177.764 93.3538 175.821 95.0265 173.473 97.0481C172.811 97.6183 172.117 98.2162 171.386 98.8497L170.858 99.308L170.423 98.7607C169.786 97.9603 169.243 97.1889 168.744 96.4802C168.623 96.3085 168.505 96.1406 168.389 95.9768C167.785 95.1269 167.23 94.3859 166.592 93.7446L166.589 93.7414C156.999 83.9715 147.324 74.2894 137.675 64.6338C132.861 59.8172 128.055 55.0073 123.269 50.1963C122.093 49.0641 121.252 48.2554 120.561 47.7253C119.867 47.1932 119.434 47.0313 119.078 47.0367C118.719 47.0422 118.278 47.2205 117.574 47.7771C116.874 48.3306 116.02 49.1682 114.831 50.3377C96.5587 68.4954 78.0911 86.652 59.6246 104.614L59.6186 104.62L59.6125 104.626C57.9299 106.183 56.1521 107.687 54.5312 109.039C54.1912 109.323 53.8588 109.599 53.5357 109.868C52.5506 110.687 51.6533 111.433 50.8998 112.086C61.8213 123.429 72.5774 134.564 83.2647 145.627C95.0578 157.835 106.767 169.957 118.522 182.176C119.138 181.585 119.723 181.048 120.288 180.531L120.356 180.469C121.045 179.839 121.701 179.238 122.357 178.593C127.338 173.696 132.339 168.822 137.338 163.95C147.331 154.211 157.318 144.478 167.137 134.567C168.63 133.003 170.026 132.047 171.542 132.055C173.059 132.063 174.444 133.035 175.92 134.617C182.13 141.119 188.508 147.444 194.894 153.776C198.091 156.946 201.29 160.118 204.47 163.315C205.077 163.925 205.629 164.581 206.211 165.289C206.3 165.396 206.388 165.505 206.479 165.614C206.988 166.235 207.534 166.9 208.186 167.637L208.614 168.122L208.145 168.567C207.332 169.34 206.52 170.112 205.71 170.881C194.967 181.09 184.567 190.974 174.658 200.533C180.159 206.063 185.343 211.279 191.197 217.339L191.894 216.641C202.335 206.189 213.139 195.375 224.308 184.021L224.783 183.538L225.261 184.018C231.089 189.876 236.82 195.588 242.407 201.155L242.858 201.605C248.12 206.848 253.252 211.961 258.212 216.944L274.347 201.081L271.519 198.239C269.279 195.987 267.052 193.736 264.829 191.489C258.176 184.765 251.557 178.075 244.715 171.491L244.71 171.486L244.705 171.481C243.437 170.206 242.574 169.015 242.55 167.708C242.526 166.379 243.366 165.187 244.76 163.913C254.969 154.263 264.981 144.613 274.797 134.769L274.809 134.757L274.821 134.746C276.121 133.566 277.314 132.835 278.582 132.842C279.861 132.849 281 133.604 282.194 134.805L282.2 134.81C286.372 139.102 290.643 143.346 294.918 147.595L294.921 147.598C299.194 151.844 303.471 156.094 307.651 160.393C315.434 168.217 323.03 176.039 330.8 184.04L330.888 184.13C331.587 183.456 332.222 182.872 332.803 182.339L333.016 182.145C333.645 181.57 334.205 181.058 334.725 180.546L334.729 180.543L335.017 180.262C350.241 165.487 365.269 150.902 380.298 135.934L380.301 135.931C381.69 134.565 382.982 133.669 384.411 133.647C385.849 133.624 387.189 134.488 388.67 135.977L388.675 135.982C398.187 145.738 407.896 155.303 417.611 164.873C418.994 166.165 419.857 167.407 419.85 168.795C419.842 170.174 418.973 171.455 417.578 172.827L417.573 172.832L417.568 172.837C410.644 179.354 403.942 185.979 397.289 192.557C395.078 194.743 392.872 196.923 390.665 199.093L390.65 199.109L390.633 199.123C389.305 200.265 388.113 201.556 387.184 202.63C390.87 206.225 394.339 209.751 397.93 213.402C399.698 215.199 401.496 217.027 403.364 218.908C411.857 210.368 420.543 201.643 429.417 192.918L429.449 192.887C431.288 191.079 432.709 189.681 433.903 188.742C435.101 187.8 436.184 187.225 437.345 187.231C438.507 187.238 439.583 187.825 440.77 188.78C441.954 189.732 443.36 191.145 445.179 192.974L445.21 193.006C453.985 201.825 462.571 210.644 470.967 219.275C476.721 213.443 481.962 208.286 487.359 202.98C486.793 202.262 486.022 201.36 485.253 200.588C476.315 191.603 467.383 182.625 458.256 173.841C456.606 172.279 455.491 170.849 455.41 169.272C455.327 167.664 456.325 166.173 458.113 164.512L458.115 164.51C467.725 155.641 476.947 146.575 485.976 137.311C487.651 135.473 489.144 134.353 490.794 134.333C492.441 134.312 493.981 135.392 495.733 137.153L495.739 137.159C502.923 144.576 510.255 151.946 517.59 159.319L517.596 159.325C524.928 166.695 532.264 174.069 539.454 181.491L539.46 181.498C541.204 183.348 542.397 184.08 543.466 184.105C544.531 184.129 545.724 183.458 547.485 181.727C556.014 173.121 564.68 164.633 573.36 156.13C579.869 149.755 586.386 143.371 592.859 136.924C594.05 135.657 595.233 134.761 596.557 134.677C597.915 134.59 599.169 135.366 600.47 136.773C610.177 146.726 619.884 156.482 629.785 166.045C631.274 167.443 632.102 168.75 632 170.16C631.9 171.533 630.926 172.752 629.548 174.012C620.327 182.884 611.301 191.758 602.076 200.828C601.58 201.396 601.084 201.931 600.653 202.396C600.569 202.486 600.488 202.574 600.409 202.659C600.133 202.958 599.903 203.21 599.724 203.417C602.397 206.188 605.034 208.838 607.762 211.581C610.439 214.271 613.204 217.051 616.173 220.115C616.186 220.09 616.199 220.066 616.212 220.041L616.273 219.924C616.431 219.621 616.607 219.285 616.797 218.945C617.223 218.182 617.753 217.341 618.411 216.693C623.915 211.152 629.596 205.61 635.272 200.072C638.109 197.305 640.944 194.538 643.756 191.774L643.76 191.77L643.763 191.767C644.226 191.326 644.65 190.917 645.042 190.539C645.961 189.653 646.696 188.943 647.304 188.43C648.15 187.716 648.936 187.209 649.814 187.268C650.674 187.326 651.407 187.918 652.183 188.672C652.584 189.06 653.036 189.535 653.556 190.081L653.578 190.105C654.111 190.664 654.723 191.306 655.446 192.033C658.849 195.454 662.291 198.852 665.741 202.258C670.938 207.388 676.155 212.537 681.291 217.818C682.524 219.056 683.484 219.58 684.313 219.603C685.114 219.625 686.016 219.181 687.146 217.885L687.151 217.879L687.156 217.874C690.513 214.185 693.87 210.885 697.617 207.588C698.866 206.454 699.367 205.603 699.389 204.851C699.411 204.109 698.969 203.214 697.642 201.975L697.639 201.972L697.635 201.968C692.966 197.471 688.397 192.877 683.833 188.29L683.828 188.285C679.262 183.696 674.702 179.112 670.044 174.625C668.475 173.145 667.548 171.798 667.587 170.346C667.625 168.906 668.612 167.627 670.089 166.271C679.907 156.811 689.719 147.357 699.337 137.709C700.517 136.453 701.654 135.546 702.961 135.461C704.295 135.373 705.551 136.152 706.937 137.545L706.941 137.549L706.945 137.554C715.102 146.045 723.477 154.427 731.83 162.787C734.613 165.572 737.393 168.354 740.161 171.137C745.243 176.245 750.14 181.351 754.852 186.276C778.3 163.034 801.179 140.539 824.243 117.864C824.174 117.782 824.104 117.699 824.034 117.616L823.953 117.519C823.686 117.202 823.412 116.881 823.143 116.611L823.141 116.609M823.141 116.609L759.021 52.7426L759.019 52.7404C757.78 51.4947 756.993 51.1495 756.352 51.1949C755.67 51.2432 754.897 51.7392 753.711 52.9053L707.152 98.6801C705.857 99.9535 704.658 100.755 703.347 100.748C702.035 100.74 700.845 99.9258 699.564 98.6381L699.56 98.6334C689.85 88.6778 680.141 78.9185 670.237 69.3533C668.667 67.8733 667.74 66.5258 667.779 65.0745C667.818 63.6343 668.804 62.3552 670.281 60.9989C679.698 51.934 689.115 42.6754 698.337 33.4155C698.738 32.9328 699.14 32.0774 699.371 31.2233C699.487 30.7973 699.55 30.4045 699.557 30.0923C699.56 29.9368 699.549 29.816 699.531 29.7286C699.518 29.6692 699.505 29.6367 699.498 29.6226C696.531 26.2539 693.314 22.9788 689.998 19.6019C688.489 18.0654 686.959 16.5079 685.423 14.9108C685.073 15.2191 684.743 15.5078 684.432 15.7809C683.211 16.8504 682.264 17.6805 681.415 18.5147L681.41 18.5196L681.121 18.7977C671.792 27.7785 662.659 36.5703 653.525 45.7417L653.52 45.7467C652.417 46.8315 651.325 47.5731 650.124 47.5979C648.903 47.623 647.807 46.9065 646.7 45.6952C643.406 42.2863 640.013 38.9244 636.614 35.5565L636.611 35.5536C633.212 32.1861 629.807 28.8126 626.5 25.3902L626.494 25.3841C623.683 22.4014 620.997 19.1672 618.451 16.1019C617.976 15.5297 617.505 14.9634 617.04 14.4057C616.105 15.3518 615.197 16.2719 614.31 17.1702C609.266 22.2809 604.916 26.6875 600.345 31.1904C604.477 35.4194 608.665 39.7046 612.853 43.9897C619.348 50.6355 625.843 57.2811 632.129 63.7163L632.592 64.1904L632.123 64.6589C629.131 67.6491 626.163 70.6152 623.195 73.5812C614.276 82.4945 605.358 91.4077 595.776 100.973L595.295 101.453L594.822 100.966C578.071 83.7409 560.936 66.3225 543.229 48.3303C525.711 65.7455 508.388 82.9675 491.645 99.6206L491.166 100.097L490.693 99.6142C484.768 93.5614 478.892 87.6057 472.966 81.6002L472.818 81.4498C466.941 75.4938 461.014 69.4876 454.944 63.2895L454.476 62.8115L487.296 30.5437C485.7 28.8205 484.121 27.114 482.542 25.4077C479.236 21.8351 475.93 18.263 472.473 14.5382C471.942 15.0442 471.417 15.5231 470.912 15.983C470.247 16.5888 469.619 17.1586 469.041 17.7272C466.021 20.6961 462.983 23.6396 459.947 26.5811C453.885 32.4554 447.831 38.3217 441.944 44.3671C440.642 45.7448 439.394 46.6012 438.002 46.5935C436.619 46.5858 435.332 45.7246 433.952 44.3367L433.947 44.3316L433.942 44.3264C425.015 34.9629 415.889 25.9852 406.755 16.9988L406.75 16.9938C405.783 16.0217 404.674 15.0447 403.774 14.2995C401.069 17.0428 398.405 19.6617 395.723 22.2983C393.048 24.9285 390.354 27.5765 387.577 30.3893C398.31 41.1723 409.404 52.1294 419.745 62.1386L420.235 62.6128L419.752 63.0946C415.687 67.1561 411.665 71.1746 407.643 75.1932C399.615 83.2149 391.587 91.237 383.209 99.6019L382.731 100.079L382.258 99.5976C367.797 84.8932 353.047 69.7508 337.377 53.6648C335.163 51.392 332.93 49.1003 330.678 46.7884C330.662 46.8041 330.644 46.8208 330.625 46.8374C330.609 46.8507 330.59 46.8661 330.569 46.882C330.548 46.8975 330.518 46.9174 330.482 46.9372C330.449 46.9558 330.393 46.9833 330.319 47.0026C330.255 47.0195 330.146 47.0383 330.015 47.0132C322.709 54.2373 314.705 62.6167 306.692 71.027C306.248 71.4928 305.805 71.9587 305.361 72.4245C297.456 80.7233 289.581 88.991 282.411 96.1309L282.408 96.134C280.921 97.596 279.574 98.4983 278.137 98.4904C276.692 98.4824 275.404 97.5574 274.029 96.0775C264.514 86.3181 254.806 76.5598 245.097 67.1908L245.092 67.1861L245.087 67.1812C243.61 65.6961 242.743 64.3458 242.813 62.9013C242.882 61.472 243.86 60.1992 245.34 58.8402C254.756 49.7754 264.173 40.5167 273.396 31.2569C273.783 30.7891 274.139 29.9499 274.324 29.0966C274.416 28.6731 274.459 28.2796 274.451 27.9648C274.443 27.658 274.388 27.5114 274.364 27.4661C269.866 22.3824 265.183 17.6572 260.125 12.5728M260.106 115.549L259.634 116.014C248.243 127.213 236.654 138.8 224.867 150.775L224.524 151.123L224.087 150.903C224.022 150.87 223.928 150.831 223.792 150.778C223.766 150.768 223.739 150.758 223.711 150.747C223.601 150.704 223.474 150.655 223.349 150.602C223.05 150.476 222.649 150.288 222.355 149.992C211.672 139.253 200.992 128.518 190.311 117.976C189.4 117.16 188.716 116.236 188.625 115.182C188.531 114.088 189.09 113.077 190.146 112.139C192.801 109.576 195.458 107.001 198.118 104.422C206.073 96.7098 214.061 88.9648 222.156 81.44C222.476 81.1293 222.926 80.9493 223.349 80.8432C223.793 80.7321 224.29 80.6817 224.775 80.6844C225.259 80.6871 225.756 80.743 226.198 80.859C226.623 80.9706 227.075 81.1577 227.392 81.4765L227.396 81.4807C234.703 88.9563 241.923 96.5213 249.111 104.053C252.629 107.738 256.139 111.416 259.648 115.071L260.106 115.549ZM222.619 81.9255C214.527 89.4469 206.544 97.1868 198.588 104.9C195.924 107.483 193.263 110.063 190.601 112.631C188.638 114.368 189.02 115.924 190.77 117.488C201.458 128.035 212.144 138.777 222.83 149.519C223.101 149.791 223.563 149.97 223.949 150.12C224.117 150.185 224.271 150.245 224.389 150.304C236.178 138.327 247.77 126.738 259.164 115.536C255.652 111.877 252.141 108.198 248.622 104.511C241.436 96.9818 234.221 89.4221 226.917 81.9493C226.14 81.1681 223.404 81.153 222.619 81.9255ZM613.222 115.939L613.699 115.469C614.695 114.49 615.897 113.444 617.157 112.348C617.411 112.127 617.667 111.904 617.925 111.678C619.469 110.329 621.07 108.898 622.521 107.376L622.531 107.365L622.542 107.355C626.465 103.594 630.341 99.784 634.219 95.9705L634.224 95.9658C638.104 92.1517 641.986 88.3342 645.919 84.565L645.93 84.5543L645.941 84.5441C646.145 84.3664 646.344 84.1825 646.548 83.9939L646.575 83.9688C646.786 83.774 647.003 83.5738 647.222 83.3854C647.655 83.0131 648.138 82.6485 648.68 82.4272C649.243 82.1976 649.865 82.1249 650.541 82.3249C651.198 82.5194 651.851 82.9551 652.529 83.6364L652.535 83.6427L652.541 83.6492C662.474 94.178 672.408 104.539 682.031 114.576L684.651 117.309L684.195 117.774C673.182 128.982 661.79 140.375 650.58 151.585L649.529 152.637L649.055 152.16C637.786 140.833 626.126 129.113 613.69 116.417L613.222 115.939ZM474.164 117.015L473.755 117.402C468.261 122.611 462.961 127.822 457.656 133.037L457.652 133.041L457.648 133.045C455.308 135.269 452.988 137.534 450.671 139.796C447.182 143.204 443.698 146.606 440.157 149.854L440.139 149.871L440.118 149.887C439.493 150.379 438.378 150.737 437.379 150.884C436.865 150.96 436.334 150.987 435.86 150.934C435.414 150.884 434.898 150.75 434.541 150.394C427.023 143.097 419.675 135.624 412.333 128.158C408.664 124.427 404.997 120.697 401.311 116.992L401.115 116.795L401.116 116.534C401.116 116.533 401.116 116.532 401.116 116.531C401.114 116.512 401.11 116.469 401.099 116.393C401.078 116.239 401.033 115.96 400.94 115.482L400.871 115.128L401.128 114.875C402.562 113.465 404.134 112.01 405.745 110.52L405.905 110.372C407.575 108.826 409.287 107.24 410.948 105.606L410.954 105.6C418.611 98.2655 426.27 90.736 433.932 83.2029C434.899 82.2517 435.874 81.4162 436.992 81.2373C438.191 81.0455 439.322 81.6226 440.543 82.849C440.544 82.8497 440.544 82.8504 440.545 82.851L472.02 113.904L472.025 113.908C472.368 114.252 472.641 114.642 472.914 115.067C473.023 115.237 473.129 115.407 473.24 115.585C473.419 115.873 473.612 116.182 473.853 116.545L474.164 117.015ZM440.07 83.3239C437.738 80.9802 436.366 81.7495 434.402 83.6809C426.74 91.2135 419.079 98.7461 411.418 106.084C409.696 107.777 407.922 109.419 406.204 111.008C404.59 112.502 403.025 113.95 401.598 115.353C401.788 116.325 401.787 116.52 401.787 116.52C405.478 120.23 409.148 123.962 412.818 127.695C420.158 135.159 427.497 142.624 435.012 149.917C435.789 150.698 438.723 150.132 439.704 149.36C443.24 146.115 446.707 142.73 450.188 139.331C452.506 137.067 454.831 134.798 457.186 132.559L457.187 132.558C462.491 127.344 467.795 122.129 473.294 116.915C473.051 116.548 472.846 116.219 472.661 115.923C472.257 115.276 471.949 114.783 471.55 114.381L440.07 83.3239ZM756.01 82.3599L756.488 82.8643C762.217 88.9161 767.898 94.8706 773.58 100.826C779.262 106.782 784.944 112.738 790.676 118.792L791.128 119.27L790.659 119.731C790.66 119.729 790.66 119.73 790.658 119.732C790.653 119.738 790.638 119.755 790.609 119.791C790.572 119.836 790.525 119.896 790.467 119.971C790.401 120.057 790.321 120.161 790.231 120.277C790.168 120.359 790.099 120.447 790.026 120.539C789.675 120.983 789.212 121.539 788.692 122.051C785.476 125.213 782.242 128.349 779.01 131.484C772.554 137.745 766.106 143.999 759.825 150.431C758.424 151.907 757.079 152.808 755.616 152.8C754.154 152.791 752.82 151.877 751.435 150.387C745.093 143.882 738.752 137.552 732.408 131.218C729.234 128.049 726.059 124.879 722.882 121.686C722.368 121.169 721.912 120.608 721.566 120.16C721.393 119.937 721.243 119.736 721.131 119.587C721.073 119.511 721.027 119.451 720.991 119.405C720.95 119.353 720.937 119.34 720.942 119.345L720.478 118.879L723.754 115.494C734.353 104.542 744.689 93.861 755.523 82.8549L756.01 82.3599ZM751.92 149.924C754.639 152.852 756.593 152.863 759.344 149.965C765.632 143.525 772.093 137.259 778.554 130.993C781.784 127.86 785.014 124.727 788.222 121.573C788.901 120.905 789.487 120.145 789.849 119.675C790.011 119.465 790.128 119.313 790.189 119.253C784.459 113.2 778.777 107.245 773.095 101.289C767.565 95.4934 762.036 89.6977 756.462 83.8123C756.308 83.65 756.154 83.4876 756.001 83.3252C755.844 83.4846 755.687 83.644 755.53 83.8033C744.872 94.6369 734.684 105.163 724.24 115.955L721.417 118.872C721.477 118.932 721.592 119.086 721.752 119.298C722.109 119.772 722.686 120.539 723.358 121.214C726.531 124.404 729.705 127.572 732.878 130.74C739.226 137.077 745.573 143.414 751.92 149.924ZM152.632 115.35L152.18 115.803C146.874 121.116 141.323 126.622 135.724 132.175L135.583 132.315C130.03 137.822 124.431 143.375 118.978 148.832L118.502 149.308L118.028 148.831C112.295 143.069 106.563 137.258 100.977 131.594L100.525 131.136C95.0977 125.633 89.813 120.275 84.8041 115.24L84.3411 114.774L84.7966 114.302C95.4059 103.292 106.606 91.5079 118.2 79.1434L118.691 78.6199L119.18 79.1453C130.444 91.2498 141.517 103.161 152.201 114.877L152.632 115.35ZM543.434 81.1746L543.92 81.6872C548.272 86.2842 552.565 90.8505 556.791 95.345C563.701 102.693 570.43 109.85 576.938 116.634L577.388 117.103L576.933 117.568C566.322 128.386 554.924 139.979 543.526 151.378L543.047 151.857L542.573 151.372C536.544 145.208 530.505 138.977 524.617 132.901C519.509 127.632 514.516 122.479 509.74 117.588L509.29 117.127L509.733 116.659C520.15 105.645 531.352 93.8584 542.947 81.6857L543.434 81.1746ZM366.192 116.719L365.719 117.184C359.825 122.979 353.349 129.346 346.872 136.1L346.86 136.112L346.847 136.124C345.062 137.803 343.294 139.526 341.527 141.247C338.86 143.846 336.196 146.442 333.479 148.88L333.463 148.895L333.446 148.908C332.82 149.4 331.705 149.758 330.707 149.905C330.193 149.981 329.662 150.008 329.188 149.955C328.74 149.905 328.224 149.771 327.867 149.414C320.603 142.242 313.423 134.982 306.276 127.754C302.715 124.153 299.162 120.56 295.61 116.99C295.447 116.826 295.312 116.613 295.219 116.425C295.136 116.258 295.027 115.995 295.029 115.734L295.03 115.455L295.229 115.26C301.315 109.277 307.205 103.292 313.101 97.3031L313.104 97.2992L313.108 97.2954C314.278 96.1451 315.45 94.9808 316.627 93.8121C320.178 90.2841 323.771 86.7156 327.468 83.371L327.481 83.36L327.493 83.3496C328.206 82.7662 329.358 82.3547 330.358 82.1566C330.869 82.0554 331.381 82.0012 331.824 82.018C332.045 82.0264 332.268 82.0531 332.472 82.1103C332.67 82.1655 332.902 82.2635 333.088 82.4503C341.121 90.5249 349.048 98.8123 357.098 107.228C359.957 110.218 362.832 113.223 365.733 116.241L366.192 116.719ZM328.339 148.938C329.117 149.719 332.05 149.153 333.032 148.381C335.743 145.947 338.384 143.373 341.04 140.785C342.808 139.063 344.583 137.334 346.388 135.636C352.873 128.874 359.356 122.5 365.249 116.706C362.346 113.685 359.47 110.678 356.61 107.688C348.561 99.273 340.64 90.9926 332.613 82.9231C332.03 82.3372 329.096 82.9036 327.918 83.8682C324.233 87.2013 320.657 90.754 317.108 94.2792C315.929 95.45 314.754 96.6177 313.578 97.7734L313.577 97.7744C307.683 103.763 301.789 109.751 295.699 115.738C295.698 115.932 295.891 116.322 296.086 116.517C299.64 120.09 303.195 123.685 306.757 127.286C313.902 134.513 321.077 141.768 328.339 148.938ZM649.058 151.212C649.215 151.371 649.373 151.529 649.53 151.687L650.102 151.116C661.313 139.904 672.704 128.511 683.717 117.304L681.553 115.047C671.928 105.008 661.99 94.6424 652.054 84.1092C649.829 81.8732 648.495 83.1069 647.001 84.4878C646.799 84.6749 646.593 84.8647 646.383 85.049C642.454 88.8147 638.574 92.6293 634.694 96.4438C630.814 100.258 626.934 104.073 623.006 107.839C621.283 109.645 619.361 111.318 617.591 112.859C616.532 113.78 615.527 114.655 614.652 115.482C614.514 115.612 614.38 115.741 614.249 115.869C614.222 115.895 614.195 115.921 614.169 115.947C626.429 128.464 637.935 140.032 649.058 151.212ZM118.689 79.602C118.536 79.7655 118.382 79.9289 118.229 80.0921C106.797 92.28 95.7506 103.9 85.2793 114.767C90.2902 119.804 95.5768 125.164 101.005 130.668C106.579 136.32 112.303 142.123 118.031 147.883C118.188 148.042 118.346 148.2 118.503 148.359C118.661 148.201 118.819 148.043 118.977 147.884C124.282 142.579 129.718 137.188 135.11 131.84C140.757 126.239 146.356 120.686 151.706 115.329C141.169 103.775 130.254 92.0293 119.147 80.0939C118.994 79.93 118.841 79.766 118.689 79.602ZM542.583 150.424C542.74 150.584 542.896 150.744 543.052 150.904C543.21 150.746 543.368 150.588 543.526 150.429C554.763 139.186 565.991 127.766 576.454 117.098C569.943 110.312 563.209 103.149 556.297 95.7981C552.221 91.4637 548.084 87.0635 543.894 82.6357C543.74 82.4732 543.587 82.3107 543.433 82.1481C543.278 82.3102 543.124 82.4722 542.97 82.6342C531.54 94.6342 520.497 106.253 510.22 117.12C515.004 122.019 519.997 127.171 525.102 132.439C530.834 138.353 536.706 144.412 542.583 150.424Z" fill="#9D884E" fill-opacity="0.35"/>
</svg>
