<svg width="387" height="211" viewBox="0 0 387 211" fill="none" xmlns="http://www.w3.org/2000/svg">
<path fill-rule="evenodd" clip-rule="evenodd" d="M174.72 35.2915C168.073 28.2667 161.623 21.3758 155.369 14.6949C151.16 10.1981 147.04 5.79641 143.009 1.51307C142.856 1.35014 142.702 1.18737 142.549 1.0248L142.548 1.02572C142.389 1.18262 142.23 1.33901 142.071 1.4949C135.984 7.48019 130.647 12.7411 126.241 17.6383C128.516 19.9718 130.813 22.3387 133.13 24.7258C140.507 32.327 148.082 40.1323 155.772 47.7133C158.688 50.4487 158.873 52.1978 155.927 55.095C150.625 60.0753 145.464 65.1263 140.317 70.1634C136.883 73.5239 133.456 76.8783 129.997 80.2013C128.313 81.8568 126.392 83.511 124.047 85.5305C123.537 85.9698 123.007 86.4263 122.454 86.904C122.287 87.0484 122.118 87.1948 121.947 87.3433C121.805 87.1649 121.668 86.9881 121.535 86.8131C121.084 86.2199 120.681 85.6472 120.297 85.1009C119.555 84.0465 118.882 83.09 118.068 82.2718C108.475 72.4997 98.7959 62.8135 89.1453 53.1563C84.3311 48.3389 79.5241 43.5286 74.7388 38.7185C72.4229 36.4876 71.2569 35.3643 70.0927 35.3662C68.9122 35.3681 67.7336 36.5269 65.3597 38.8608C47.0888 57.0173 28.6224 75.1727 10.1572 93.1339C8.14075 94.9997 5.98218 96.7938 4.11286 98.3476C3.11588 99.1762 2.20117 99.9365 1.43419 100.603C1.25824 100.756 1.09007 100.904 0.930467 101.046C1.0856 101.207 1.2407 101.368 1.39577 101.529C12.3278 112.883 23.0904 124.025 33.7838 135.094C45.5759 147.301 57.2837 159.421 69.0415 171.643C69.1965 171.804 69.3514 171.965 69.5063 172.126C69.6687 171.966 69.8289 171.811 69.9873 171.659C70.6209 171.051 71.2244 170.498 71.8116 169.961C72.4981 169.332 73.1625 168.724 73.8272 168.071C78.8037 163.178 83.8019 158.307 88.8001 153.436C98.7969 143.693 108.794 133.951 118.618 124.034C121.566 120.943 123.519 120.954 126.433 124.078C132.649 130.586 139.04 136.924 145.431 143.261C148.626 146.429 151.821 149.598 154.995 152.788C155.665 153.461 156.27 154.199 156.959 155.038C157.468 155.658 158.023 156.334 158.683 157.081C157.869 157.855 157.057 158.627 156.246 159.397C145.502 169.608 135.098 179.495 125.185 189.058C125.024 189.213 124.863 189.369 124.703 189.524C124.861 189.682 125.018 189.841 125.176 189.999C130.682 195.534 135.867 200.751 141.723 206.813C141.878 206.973 142.033 207.134 142.189 207.296L143.37 206.113C153.664 195.809 164.312 185.15 175.316 173.969C175.472 173.81 175.629 173.651 175.786 173.491C175.944 173.65 176.101 173.808 176.259 173.966C182.078 179.813 187.8 185.514 193.374 191.069C198.806 196.482 204.099 201.755 209.207 206.89L226.298 190.086L222.995 186.766C220.757 184.517 218.532 182.268 216.31 180.022C209.655 173.297 203.028 166.598 196.18 160.008C193.654 157.469 193.468 155.914 196.217 153.404C206.43 143.749 216.448 134.093 226.272 124.242C228.824 121.925 230.387 121.934 232.719 124.278C236.896 128.574 241.171 132.822 245.446 137.07C249.72 141.318 253.995 145.567 258.172 149.863C265.955 157.686 273.552 165.509 281.325 173.513L281.875 174.079C282.038 173.918 282.198 173.762 282.355 173.611C283.132 172.862 283.831 172.223 284.47 171.639C285.096 171.065 285.666 170.545 286.195 170.024L286.483 169.744C301.707 154.969 316.738 140.381 331.771 125.409C334.521 122.705 336.281 122.52 339.195 125.45C348.714 135.214 358.43 144.785 368.146 154.356L368.147 154.356C370.868 156.896 370.858 158.645 368.108 161.349C361.178 167.871 354.468 174.505 347.814 181.084C345.603 183.269 343.399 185.448 341.195 187.615C339.625 188.966 338.249 190.512 337.265 191.672C341.116 195.414 344.712 199.069 348.445 202.865C350.216 204.665 352.017 206.496 353.891 208.383C354.048 208.541 354.206 208.7 354.364 208.859C354.521 208.7 354.679 208.542 354.836 208.384C363.331 199.843 372.015 191.119 380.887 182.396C384.619 178.726 386.485 176.892 388.342 176.902C390.198 176.912 392.043 178.768 395.735 182.478C404.51 191.299 413.097 200.118 421.496 208.753C421.652 208.913 421.808 209.073 421.963 209.233C422.121 209.074 422.278 208.914 422.434 208.756C428.339 202.772 433.702 197.499 439.252 192.042C438.67 191.262 437.7 190.092 436.728 189.115C427.791 180.131 418.853 171.147 409.719 162.356C406.414 159.23 406.034 157.285 409.569 154.003C419.192 145.122 428.425 136.044 437.464 126.771C440.806 123.099 442.76 123.11 446.257 126.626C453.445 134.046 460.78 141.419 468.115 148.792C475.45 156.165 482.785 163.537 489.972 170.958C493.469 174.668 495.423 174.678 498.959 171.202C507.489 162.594 516.147 154.114 524.822 145.616C531.333 139.239 537.854 132.851 544.34 126.392C546.698 123.88 548.459 123.501 550.984 126.234C560.698 136.194 570.412 145.959 580.324 155.531C583.24 158.267 582.839 160.013 580.09 162.522C570.86 171.403 561.826 180.286 552.595 189.361L552.588 189.368C552.094 189.935 551.6 190.468 551.164 190.938C550.558 191.59 550.064 192.123 549.835 192.46C552.652 195.389 555.421 198.173 558.287 201.053C561.008 203.789 563.817 206.612 566.838 209.733C566.999 209.898 567.16 210.065 567.321 210.232C567.428 210.057 567.542 209.85 567.663 209.622C567.729 209.499 567.796 209.369 567.866 209.235C568.384 208.245 569.033 207.004 569.884 206.168C575.385 200.63 581.06 195.093 586.735 189.557C589.573 186.789 592.41 184.02 595.226 181.252C598.344 178.282 599.578 176.879 600.742 176.935C601.924 176.992 603.033 178.554 605.97 181.506C609.384 184.937 612.829 188.338 616.28 191.744C621.472 196.869 626.678 202.009 631.813 207.287C634.339 209.826 636.292 210.032 638.651 207.325C641.993 203.653 645.333 200.37 649.063 197.089C651.616 194.772 651.821 193.025 649.1 190.485C644.436 185.992 639.87 181.402 635.303 176.813C630.737 172.223 626.171 167.633 621.507 163.14C618.397 160.209 618.602 158.462 621.548 155.76L621.549 155.759C631.37 146.296 641.191 136.833 650.818 127.176C653.177 124.664 654.742 124.284 657.462 127.018C665.624 135.515 674.006 143.904 682.361 152.266C685.142 155.049 687.92 157.829 690.686 160.61C695.765 165.715 700.662 170.82 705.376 175.748C705.53 175.909 705.685 176.071 705.839 176.232C705.998 176.075 706.157 175.917 706.315 175.76C729.758 152.524 752.632 130.034 775.692 107.363C775.847 107.21 776.003 107.057 776.159 106.904L776.17 106.893C776.16 106.883 776.15 106.873 776.14 106.863C775.971 106.689 775.768 106.447 775.546 106.183C775.258 105.84 774.937 105.459 774.616 105.136L710.494 41.2677C707.968 38.7287 706.598 39.1095 704.241 41.4273L657.682 87.2021C655.129 89.7129 653.565 89.7043 651.04 87.1653C641.326 77.2057 631.611 67.4404 621.699 57.8683C618.589 54.9376 618.794 53.1906 621.74 50.4877C631.169 41.4111 640.598 32.1403 649.833 22.8683C650.816 21.7084 651.613 18.9936 651.031 18.2134C648.044 14.8194 644.795 11.5107 641.459 8.11417C639.807 6.43226 638.134 4.72882 636.461 2.98278C635.936 3.44798 635.452 3.87164 635.003 4.2649C633.776 5.34015 632.808 6.18811 631.945 7.03661L631.649 7.32168C622.323 16.2993 613.188 25.0938 604.05 34.2687C601.889 36.3932 600.325 36.5788 598.189 34.2362C594.886 30.8189 591.486 27.4496 588.085 24.0803C584.685 20.711 581.285 17.3416 577.982 13.9243C575.187 10.9586 572.518 7.74538 569.973 4.68148C569.482 4.08999 568.995 3.50404 568.513 2.92654C568.369 2.75355 568.225 2.58131 568.081 2.40991C567.923 2.57036 567.765 2.73003 567.608 2.88897C566.658 3.85104 565.735 4.78596 564.834 5.69834C559.614 10.987 555.142 15.5175 550.399 20.1812C554.669 24.5517 559.001 28.9846 563.334 33.4175C569.842 40.0769 576.351 46.7364 582.649 53.1847C579.654 56.1775 576.684 59.1461 573.713 62.1147C564.945 70.8781 556.176 79.6415 546.777 89.0251C546.619 89.1828 546.461 89.3407 546.303 89.4988C546.147 89.3386 545.991 89.1784 545.835 89.0182C529.23 71.9471 512.248 54.6833 494.705 36.8576C494.548 36.6984 494.391 36.5391 494.235 36.3798C494.076 36.5374 493.918 36.6949 493.759 36.8525C476.405 54.1037 459.244 71.1656 442.647 87.6725C442.489 87.8302 442.33 87.9877 442.172 88.1453C442.016 87.9855 441.859 87.8258 441.703 87.6662C435.887 81.7265 430.115 75.877 424.295 69.9792C418.418 64.0231 412.492 58.0177 406.423 51.8205L439.23 19.5656C437.484 17.6802 435.759 15.8163 434.034 13.9526C430.725 10.3766 427.416 6.80068 423.955 3.07198C423.803 2.90845 423.651 2.74464 423.498 2.58048C423.338 2.7385 423.177 2.89384 423.017 3.04686C422.465 3.5737 421.916 4.07282 421.384 4.55685C420.749 5.13516 420.137 5.69201 419.571 6.24911C416.558 9.21047 413.525 12.1502 410.491 15.0898C404.423 20.9696 398.355 26.8494 392.46 32.9028C389.905 35.6079 388.147 35.5981 385.427 32.8638C376.492 23.4923 367.36 14.508 358.228 5.52374L358.225 5.52096C357.059 4.34913 355.698 3.1762 354.725 2.39388C351.876 5.29147 349.077 8.04368 346.253 10.82C343.429 13.5965 340.581 16.3972 337.633 19.3915C348.348 30.1615 359.44 41.122 369.797 51.1539C369.958 51.3096 370.118 51.4651 370.279 51.6203C370.12 51.7783 369.962 51.9363 369.804 52.0942C365.894 56.0003 362.024 59.8681 358.152 63.736C350.282 71.6005 342.41 79.4655 334.21 87.6538C334.052 87.8116 333.894 87.9695 333.736 88.1275C333.579 87.9683 333.422 87.8089 333.266 87.6495C318.957 73.0964 304.358 58.1093 288.858 42.1977C286.624 39.9045 284.371 37.592 282.098 35.2589C282.053 35.213 282.009 35.1671 281.964 35.1212C281.957 35.1139 281.949 35.1065 281.942 35.0992C281.92 35.0759 281.897 35.0527 281.874 35.0294C281.741 34.8927 281.608 34.7559 281.474 34.619C281.439 34.654 281.403 34.6889 281.368 34.7239C281.343 34.7483 281.318 34.7728 281.293 34.7972C281.195 34.8944 281.096 34.9918 280.997 35.0894C280.833 35.2512 280.668 35.4135 280.504 35.5765C272.794 43.2007 264.314 52.1034 255.876 60.9613C247.97 69.2618 240.101 77.5229 232.938 84.6559C229.992 87.5531 228.233 87.5434 225.514 84.6148C215.995 74.8506 206.28 65.0853 196.562 55.7084C193.648 52.7788 193.853 51.0319 196.799 48.329C206.227 39.2523 215.657 29.9815 224.891 20.7095C225.874 19.5496 226.476 16.8337 225.894 16.0536C221.234 10.7836 216.376 5.90087 211.13 0.627616C205.21 6.44785 199.434 12.0793 193.589 17.7784C187.753 23.4692 181.847 29.2275 175.659 35.3085C175.5 35.4649 175.34 35.6216 175.181 35.7785C175.027 35.6161 174.873 35.4538 174.72 35.2915ZM211.125 1.57285C205.368 7.2303 199.743 12.7152 194.052 18.2631L193.845 18.4658C187.927 24.2358 181.936 30.0771 175.651 36.2566L175.164 36.7355L174.694 36.2394C167.883 29.0454 161.276 21.9864 154.876 15.149C150.671 10.6565 146.555 6.25969 142.531 1.98317C136.638 7.77747 131.466 12.8764 127.16 17.621C129.294 19.8109 131.446 22.0287 133.615 24.2636C140.989 31.8615 148.555 39.657 156.237 47.2302C157.702 48.6054 158.664 49.8887 158.718 51.3185C158.771 52.7637 157.89 54.1044 156.397 55.573L156.391 55.5783L156.386 55.5835C151.087 60.5617 145.937 65.6015 140.796 70.6331C137.362 73.9934 133.932 77.35 130.464 80.6822C128.764 82.3538 126.821 84.0265 124.473 86.0481C123.811 86.6183 123.117 87.2162 122.386 87.8497L121.858 88.308L121.423 87.7607C120.786 86.9603 120.243 86.1889 119.744 85.4802C119.623 85.3086 119.505 85.1406 119.389 84.9768C118.785 84.1269 118.23 83.386 117.592 82.7446L117.589 82.7414C107.999 72.9716 98.3238 63.2894 88.6747 53.6338C83.8614 48.8172 79.0547 44.0073 74.2685 39.1963C73.0932 38.0641 72.252 37.2554 71.5607 36.7253C70.8667 36.1932 70.4339 36.0313 70.0784 36.0367C69.7192 36.0422 69.2782 36.2205 68.5741 36.7771C67.8737 37.3306 67.0203 38.1683 65.8309 39.3377C47.5587 57.4954 29.0911 75.652 10.6246 93.6144L10.6186 93.6203L10.6125 93.6259C8.92988 95.1829 7.15215 96.6875 5.53121 98.0394C5.19125 98.323 4.85875 98.5994 4.53569 98.8679C3.5506 99.6867 2.65326 100.433 1.89977 101.086C12.8213 112.429 23.5774 123.564 34.2647 134.627C46.0578 146.835 57.7671 158.957 69.5225 171.176C70.1376 170.585 70.723 170.048 71.2878 169.531L71.3559 169.469C72.0448 168.839 72.7013 168.238 73.3572 167.593C78.3384 162.696 83.3389 157.822 88.3383 152.95C98.3308 143.211 108.318 133.478 118.137 123.567C119.63 122.003 121.026 121.047 122.542 121.055C124.059 121.063 125.444 122.035 126.92 123.617C133.13 130.119 139.508 136.444 145.894 142.776C149.091 145.946 152.29 149.118 155.47 152.315C156.077 152.925 156.629 153.581 157.211 154.289C157.3 154.396 157.388 154.505 157.479 154.614C157.988 155.235 158.534 155.9 159.186 156.637L159.614 157.122L159.145 157.567C158.332 158.34 157.52 159.112 156.71 159.881C145.967 170.09 135.567 179.974 125.658 189.533C131.159 195.063 136.343 200.279 142.197 206.339L142.894 205.641C153.335 195.189 164.139 184.375 175.308 173.021L175.783 172.538L176.261 173.018C182.089 178.876 187.82 184.588 193.407 190.155L193.858 190.605C199.12 195.848 204.252 200.961 209.212 205.944L225.347 190.081L222.519 187.239C220.279 184.987 218.052 182.736 215.829 180.489C209.176 173.765 202.557 167.075 195.715 160.491L195.71 160.486L195.705 160.481C194.437 159.206 193.574 158.015 193.55 156.708C193.526 155.379 194.366 154.187 195.76 152.913C205.969 143.263 215.981 133.613 225.797 123.769L225.809 123.757L225.821 123.746C227.121 122.566 228.314 121.835 229.582 121.842C230.861 121.849 232 122.604 233.194 123.805L233.2 123.81C237.372 128.102 241.643 132.346 245.918 136.595L245.921 136.598C250.194 140.844 254.471 145.094 258.651 149.393C266.434 157.217 274.03 165.039 281.8 173.04L281.888 173.13C282.587 172.456 283.222 171.872 283.803 171.339L284.016 171.145C284.645 170.57 285.205 170.058 285.725 169.546L285.729 169.543L286.017 169.262C301.241 154.487 316.269 139.902 331.298 124.934L331.301 124.931C332.69 123.565 333.982 122.669 335.411 122.647C336.849 122.624 338.189 123.488 339.67 124.977L339.675 124.982C349.187 134.739 358.896 144.303 368.611 153.873C369.994 155.165 370.857 156.407 370.85 157.795C370.842 159.174 369.973 160.455 368.578 161.827L368.573 161.832L368.568 161.837C361.644 168.354 354.942 174.979 348.289 181.557C346.078 183.743 343.872 185.923 341.665 188.093L341.65 188.109L341.633 188.123C340.305 189.265 339.113 190.556 338.184 191.63C341.87 195.225 345.339 198.751 348.93 202.402C350.698 204.199 352.496 206.027 354.364 207.908C362.857 199.368 371.543 190.643 380.417 181.918L380.449 181.887C382.288 180.079 383.709 178.681 384.903 177.742C386.101 176.8 387.184 176.225 388.345 176.231C389.507 176.238 390.583 176.825 391.77 177.78C392.954 178.732 394.36 180.145 396.179 181.974L396.21 182.006C404.985 190.826 413.571 199.644 421.967 208.275C427.721 202.443 432.962 197.286 438.359 191.98C437.793 191.262 437.022 190.36 436.253 189.588C427.315 180.603 418.383 171.625 409.256 162.841C407.606 161.279 406.491 159.849 406.41 158.273C406.327 156.665 407.325 155.173 409.113 153.512L409.115 153.51C418.725 144.641 427.947 135.575 436.976 126.311C438.651 124.473 440.144 123.353 441.794 123.333C443.441 123.312 444.981 124.392 446.733 126.153L446.739 126.159C453.923 133.576 461.255 140.946 468.59 148.319L468.596 148.325C475.928 155.695 483.264 163.069 490.454 170.491L490.46 170.498C492.204 172.348 493.397 173.08 494.466 173.105C495.531 173.129 496.724 172.458 498.485 170.727C507.014 162.121 515.68 153.633 524.36 145.13C530.869 138.755 537.386 132.371 543.859 125.924C545.05 124.657 546.233 123.761 547.557 123.677C548.915 123.59 550.169 124.366 551.47 125.773C561.177 135.726 570.884 145.482 580.785 155.045C582.274 156.443 583.102 157.75 583 159.16C582.9 160.533 581.926 161.753 580.548 163.012C571.327 171.884 562.301 180.758 553.076 189.828C552.58 190.396 552.084 190.931 551.653 191.396C551.569 191.486 551.488 191.574 551.409 191.659C551.133 191.958 550.903 192.21 550.724 192.417C553.397 195.188 556.034 197.838 558.762 200.581C561.439 203.271 564.204 206.051 567.173 209.115C567.186 209.09 567.199 209.066 567.212 209.041L567.273 208.924C567.431 208.621 567.607 208.285 567.797 207.945C568.223 207.182 568.753 206.341 569.411 205.693C574.915 200.152 580.596 194.61 586.272 189.072C589.109 186.305 591.944 183.539 594.756 180.774L594.76 180.77L594.763 180.767C595.226 180.326 595.65 179.917 596.042 179.539C596.961 178.653 597.696 177.943 598.304 177.43C599.15 176.716 599.936 176.209 600.814 176.268C601.674 176.326 602.407 176.918 603.183 177.672C603.584 178.06 604.036 178.535 604.556 179.081L604.578 179.105C605.111 179.664 605.723 180.307 606.446 181.033C609.849 184.454 613.291 187.852 616.741 191.258C621.938 196.388 627.155 201.537 632.291 206.818C633.524 208.056 634.484 208.58 635.313 208.603C636.114 208.625 637.016 208.181 638.146 206.885L638.151 206.879L638.156 206.874C641.513 203.185 644.87 199.885 648.617 196.588C649.866 195.454 650.367 194.603 650.389 193.851C650.411 193.109 649.969 192.214 648.642 190.975L648.639 190.972L648.635 190.968C643.966 186.471 639.397 181.877 634.833 177.29L634.828 177.285C630.262 172.696 625.702 168.112 621.044 163.625C619.475 162.145 618.548 160.798 618.587 159.346C618.625 157.906 619.612 156.627 621.089 155.271C630.907 145.811 640.719 136.357 650.337 126.709C651.517 125.453 652.654 124.546 653.961 124.461C655.295 124.373 656.551 125.152 657.937 126.545L657.941 126.549L657.945 126.554C666.102 135.045 674.477 143.427 682.83 151.787C685.613 154.572 688.393 157.354 691.161 160.137C696.243 165.245 701.14 170.351 705.852 175.276C729.3 152.034 752.179 129.539 775.243 106.864C775.174 106.782 775.104 106.699 775.034 106.616L774.953 106.519C774.686 106.202 774.412 105.881 774.143 105.611L774.141 105.609M774.141 105.609L710.021 41.7426L710.019 41.7405C708.78 40.4947 707.993 40.1495 707.352 40.1949C706.67 40.2432 705.897 40.7392 704.711 41.9053L658.152 87.6801C656.857 88.9535 655.658 89.755 654.347 89.7478C653.035 89.7405 651.845 88.9258 650.564 87.6381L650.56 87.6334C640.85 77.6778 631.141 67.9185 621.237 58.3533C619.667 56.8734 618.74 55.5258 618.779 54.0745C618.818 52.6343 619.804 51.3552 621.281 49.9989C630.698 40.934 640.115 31.6754 649.337 22.4155C649.738 21.9328 650.14 21.0774 650.371 20.2233C650.487 19.7973 650.55 19.4046 650.557 19.0924C650.56 18.9368 650.549 18.816 650.531 18.7286C650.518 18.6692 650.505 18.6367 650.498 18.6226C647.531 15.2539 644.314 11.9788 640.998 8.60196C639.489 7.06546 637.959 5.50788 636.423 3.91083C636.073 4.21916 635.743 4.50782 635.432 4.78088C634.211 5.85046 633.264 6.68051 632.415 7.51467L632.41 7.51962L632.121 7.79776C622.792 16.7785 613.659 25.5703 604.525 34.7417L604.52 34.7467C603.417 35.8315 602.325 36.5731 601.124 36.5979C599.903 36.6231 598.807 35.9065 597.7 34.6952C594.406 31.2864 591.013 27.9244 587.614 24.5565L587.611 24.5536C584.212 21.1862 580.807 17.8127 577.5 14.3902L577.494 14.3842C574.683 11.4015 571.997 8.16726 569.451 5.10187C568.976 4.5297 568.505 3.9634 568.04 3.4057C567.105 4.35186 566.197 5.27191 565.31 6.17024C560.266 11.281 555.916 15.6876 551.345 20.1905C555.477 24.4194 559.665 28.7046 563.853 32.9897C570.348 39.6356 576.843 46.2811 583.129 52.7163L583.592 53.1904L583.123 53.6589C580.131 56.6491 577.163 59.6152 574.195 62.5812C565.276 71.4945 556.358 80.4077 546.776 89.9732L546.295 90.4531L545.822 89.9662C529.071 72.7409 511.936 55.3225 494.229 37.3303C476.711 54.7455 459.388 71.9676 442.645 88.6206L442.166 89.0972L441.693 88.6142C435.768 82.5614 429.892 76.6058 423.966 70.6002L423.818 70.4498C417.941 64.4939 412.014 58.4877 405.944 52.2895L405.476 51.8115L438.296 19.5437C436.7 17.8205 435.121 16.1141 433.542 14.4077C430.236 10.8351 426.93 7.26299 423.473 3.53822C422.942 4.04417 422.417 4.5231 421.912 4.98299C421.247 5.58879 420.619 6.15861 420.041 6.72717C417.021 9.6961 413.983 12.6396 410.947 15.5811C404.885 21.4554 398.831 27.3217 392.944 33.3671C391.642 34.7448 390.394 35.6012 389.002 35.5935C387.619 35.5858 386.332 34.7247 384.952 33.3367L384.947 33.3316L384.942 33.3265C376.015 23.9629 366.889 14.9852 357.755 5.99886L357.75 5.9938C356.783 5.02171 355.674 4.04471 354.774 3.29949C352.069 6.04277 349.405 8.6617 346.723 11.2983C344.048 13.9285 341.354 16.5765 338.577 19.3893C349.31 30.1723 360.404 41.1294 370.745 51.1386L371.235 51.6128L370.752 52.0946C366.687 56.1561 362.665 60.1746 358.643 64.1932C350.615 72.215 342.587 80.237 334.209 88.6019L333.731 89.0793L333.258 88.5976C318.797 73.8932 304.047 58.7508 288.377 42.6649C286.163 40.392 283.93 38.1004 281.678 35.7884C281.662 35.8042 281.644 35.8208 281.625 35.8374C281.609 35.8507 281.59 35.8661 281.569 35.8821C281.548 35.8975 281.518 35.9174 281.482 35.9372C281.449 35.9558 281.393 35.9833 281.319 36.0026C281.255 36.0195 281.146 36.0383 281.015 36.0132C273.709 43.2374 265.705 51.6167 257.692 60.0271C257.248 60.4929 256.805 60.9587 256.361 61.4245C248.456 69.7233 240.581 77.991 233.411 85.131L233.408 85.134C231.921 86.596 230.574 87.4984 229.137 87.4904C227.692 87.4824 226.404 86.5574 225.029 85.0776C215.514 75.3181 205.806 65.5598 196.097 56.1908L196.092 56.1861L196.087 56.1812C194.61 54.6961 193.743 53.3458 193.813 51.9013C193.882 50.472 194.86 49.1992 196.34 47.8402C205.756 38.7754 215.173 29.5167 224.396 20.257C224.783 19.7891 225.139 18.9499 225.324 18.0966C225.416 17.6731 225.459 17.2796 225.451 16.9648C225.443 16.658 225.388 16.5114 225.364 16.4661C220.866 11.3825 216.183 6.65723 211.125 1.57285M211.106 104.549L210.634 105.014C199.243 116.213 187.654 127.8 175.867 139.775L175.524 140.123L175.087 139.903C175.022 139.87 174.928 139.831 174.792 139.778C174.766 139.768 174.739 139.758 174.711 139.747C174.601 139.704 174.474 139.655 174.349 139.602C174.05 139.476 173.649 139.288 173.355 138.992C162.672 128.253 151.992 117.518 141.311 106.976C140.4 106.16 139.716 105.236 139.625 104.182C139.531 103.088 140.09 102.077 141.146 101.139C143.801 98.5765 146.458 96.0012 149.118 93.4223C157.073 85.7098 165.061 77.9648 173.156 70.44C173.476 70.1293 173.926 69.9493 174.349 69.8432C174.793 69.7321 175.29 69.6817 175.775 69.6844C176.259 69.6871 176.756 69.743 177.198 69.859C177.623 69.9706 178.075 70.1577 178.392 70.4765L178.396 70.4807C185.703 77.9564 192.923 85.5213 200.111 93.0528C203.629 96.7385 207.139 100.416 210.648 104.071L211.106 104.549ZM173.619 70.9256C165.527 78.4469 157.544 86.1868 149.588 93.8999C146.924 96.483 144.263 99.0631 141.601 101.631C139.638 103.368 140.02 104.924 141.77 106.488C152.458 117.035 163.144 127.777 173.83 138.519C174.101 138.791 174.563 138.97 174.949 139.12C175.117 139.185 175.271 139.245 175.389 139.304C187.178 127.327 198.77 115.738 210.164 104.536C206.652 100.877 203.141 97.198 199.622 93.5115C192.436 85.9819 185.221 78.4221 177.917 70.9494C177.14 70.1681 174.404 70.153 173.619 70.9256ZM564.222 104.939L564.699 104.469C565.695 103.49 566.897 102.444 568.157 101.348C568.411 101.127 568.667 100.904 568.925 100.678C570.469 99.3288 572.07 97.8981 573.521 96.3761L573.531 96.3652L573.542 96.3547C577.465 92.594 581.341 88.784 585.219 84.9705L585.224 84.9658C589.104 81.1517 592.986 77.3342 596.919 73.565L596.93 73.5543L596.941 73.5442C597.145 73.3664 597.344 73.1825 597.548 72.9939L597.575 72.9689C597.786 72.7741 598.003 72.5738 598.222 72.3855C598.655 72.0131 599.138 71.6485 599.68 71.4272C600.243 71.1976 600.865 71.1249 601.541 71.325C602.198 71.5194 602.851 71.9551 603.529 72.6364L603.535 72.6427L603.541 72.6492C613.474 83.178 623.408 93.5391 633.031 103.576L635.651 106.31L635.195 106.774C624.182 117.982 612.79 129.375 601.58 140.585L600.529 141.637L600.055 141.16C588.786 129.833 577.126 118.113 564.69 105.417L564.222 104.939ZM425.164 106.015L424.755 106.402C419.261 111.611 413.961 116.822 408.656 122.037L408.652 122.041L408.648 122.045C406.308 124.269 403.988 126.534 401.671 128.796C398.182 132.204 394.698 135.606 391.157 138.854L391.139 138.871L391.118 138.887C390.493 139.379 389.378 139.737 388.379 139.884C387.865 139.96 387.334 139.987 386.86 139.934C386.414 139.884 385.898 139.75 385.541 139.394C378.023 132.097 370.675 124.624 363.333 117.158C359.664 113.427 355.997 109.697 352.311 105.992L352.115 105.795L352.116 105.534C352.116 105.533 352.116 105.532 352.116 105.531C352.114 105.512 352.11 105.469 352.099 105.393C352.078 105.239 352.033 104.96 351.94 104.482L351.871 104.128L352.128 103.875C353.562 102.465 355.134 101.01 356.745 99.5197L356.905 99.3715C358.575 97.8263 360.287 96.2399 361.948 94.6064L361.954 94.6003C369.611 87.2655 377.27 79.736 384.932 72.2029C385.899 71.2517 386.874 70.4162 387.992 70.2373C389.191 70.0455 390.322 70.6226 391.543 71.849C391.544 71.8497 391.544 71.8504 391.545 71.8511L423.02 102.904L423.025 102.908C423.368 103.252 423.641 103.642 423.914 104.067C424.023 104.237 424.129 104.407 424.24 104.585C424.419 104.873 424.612 105.182 424.853 105.545L425.164 106.015ZM391.07 72.3239C388.738 69.9802 387.366 70.7495 385.402 72.681C377.74 80.2135 370.079 87.7461 362.418 95.0844C360.696 96.7775 358.922 98.4186 357.204 100.008C355.59 101.502 354.025 102.95 352.598 104.353C352.788 105.325 352.787 105.52 352.787 105.52C356.478 109.23 360.148 112.962 363.818 116.695C371.158 124.159 378.497 131.624 386.012 138.917C386.789 139.698 389.723 139.132 390.704 138.36C394.24 135.115 397.707 131.73 401.188 128.331C403.506 126.067 405.831 123.798 408.186 121.559L408.187 121.558C413.491 116.344 418.795 111.129 424.294 105.915C424.051 105.548 423.846 105.22 423.661 104.923C423.257 104.276 422.949 103.783 422.55 103.381L391.07 72.3239ZM707.01 71.36L707.488 71.8643C713.217 77.9161 718.898 83.8706 724.58 89.8263C730.262 95.7816 735.944 101.738 741.676 107.792L742.128 108.27L741.659 108.731C741.66 108.729 741.66 108.73 741.658 108.732C741.653 108.738 741.638 108.755 741.609 108.791C741.572 108.836 741.525 108.896 741.467 108.971C741.401 109.057 741.321 109.161 741.231 109.277C741.168 109.359 741.099 109.447 741.026 109.539C740.675 109.983 740.212 110.539 739.692 111.051C736.476 114.213 733.242 117.349 730.01 120.484C723.554 126.745 717.106 132.999 710.825 139.431C709.424 140.907 708.079 141.808 706.616 141.8C705.154 141.792 703.82 140.877 702.435 139.387C696.093 132.882 689.752 126.552 683.408 120.218C680.234 117.049 677.059 113.879 673.882 110.686C673.368 110.169 672.912 109.608 672.566 109.16C672.393 108.937 672.243 108.736 672.131 108.587C672.073 108.511 672.027 108.451 671.991 108.405C671.95 108.353 671.937 108.34 671.942 108.345L671.478 107.879L674.754 104.494C685.353 93.5419 695.689 82.861 706.523 71.8549L707.01 71.36ZM702.92 138.924C705.639 141.852 707.593 141.863 710.344 138.965C716.632 132.525 723.093 126.259 729.554 119.993C732.784 116.86 736.014 113.727 739.222 110.573C739.901 109.905 740.487 109.145 740.849 108.675C741.011 108.465 741.128 108.313 741.189 108.253C735.459 102.2 729.777 96.2445 724.095 90.289C718.565 84.4934 713.036 78.6977 707.462 72.8123C707.308 72.65 707.154 72.4876 707.001 72.3252C706.844 72.4846 706.687 72.644 706.53 72.8033C695.872 83.6369 685.684 94.1633 675.24 104.955L672.417 107.872C672.477 107.932 672.592 108.086 672.752 108.298C673.109 108.772 673.686 109.539 674.358 110.214C677.531 113.404 680.705 116.572 683.878 119.74C690.226 126.077 696.573 132.414 702.92 138.924ZM103.632 104.35L103.18 104.803C97.8741 110.116 92.3229 115.622 86.724 121.175L86.5833 121.315C81.0301 126.822 75.4315 132.375 69.9777 137.832L69.5024 138.308L69.0282 137.831C63.2952 132.069 57.5626 126.258 51.9769 120.594L51.5253 120.136C46.0977 114.633 40.813 109.275 35.8041 104.24L35.3411 103.774L35.7966 103.302C46.4059 92.2917 57.6058 80.5079 69.1998 68.1435L69.6907 67.6199L70.1796 68.1453C81.4445 80.2498 92.5174 92.1615 103.201 103.877L103.632 104.35ZM494.434 70.1746L494.92 70.6872C499.272 75.2842 503.565 79.8505 507.791 84.3451C514.701 91.6935 521.43 98.8499 527.938 105.634L528.388 106.103L527.933 106.568C517.322 117.386 505.924 128.979 494.526 140.378L494.047 140.857L493.573 140.372C487.544 134.208 481.505 127.977 475.617 121.901C470.509 116.632 465.516 111.479 460.74 106.588L460.29 106.127L460.733 105.659C471.15 94.645 482.352 82.8584 493.947 70.6858L494.434 70.1746ZM317.192 105.719L316.719 106.184C310.825 111.979 304.349 118.346 297.872 125.1L297.86 125.112L297.847 125.124C296.062 126.803 294.294 128.526 292.527 130.247C289.86 132.846 287.196 135.442 284.479 137.88L284.463 137.895L284.446 137.908C283.82 138.4 282.705 138.758 281.707 138.905C281.193 138.981 280.662 139.008 280.188 138.955C279.74 138.905 279.224 138.771 278.867 138.414C271.603 131.242 264.423 123.982 257.276 116.754C253.715 113.153 250.162 109.56 246.61 105.99C246.447 105.826 246.312 105.613 246.219 105.425C246.136 105.258 246.027 104.995 246.029 104.734L246.03 104.455L246.229 104.26C252.315 98.2769 258.205 92.2923 264.101 86.3032L264.104 86.2992L264.108 86.2954C265.278 85.1451 266.45 83.9808 267.627 82.8121C271.178 79.2841 274.771 75.7156 278.468 72.371L278.481 72.36L278.493 72.3496C279.206 71.7662 280.358 71.3547 281.358 71.1566C281.869 71.0554 282.381 71.0012 282.824 71.018C283.045 71.0264 283.268 71.0531 283.472 71.1103C283.67 71.1656 283.902 71.2635 284.088 71.4503C292.121 79.5249 300.048 87.8123 308.098 96.2283C310.957 99.2176 313.832 102.223 316.733 105.241L317.192 105.719ZM279.339 137.938C280.117 138.719 283.05 138.153 284.032 137.381C286.743 134.947 289.384 132.373 292.04 129.785C293.808 128.063 295.583 126.334 297.388 124.636C303.873 117.874 310.356 111.5 316.249 105.706C313.346 102.685 310.47 99.6778 307.61 96.6875C299.561 88.273 291.64 79.9926 283.613 71.9231C283.03 71.3372 280.096 71.9036 278.918 72.8682C275.233 76.2014 271.657 79.754 268.108 83.2792C266.929 84.45 265.754 85.6177 264.578 86.7734L264.577 86.7744C258.683 92.7626 252.789 98.7508 246.699 104.738C246.698 104.932 246.891 105.322 247.086 105.517C250.64 109.09 254.195 112.685 257.757 116.286C264.902 123.513 272.077 130.768 279.339 137.938ZM600.058 140.212C600.215 140.371 600.373 140.529 600.53 140.687L601.102 140.116C612.313 128.904 623.704 117.511 634.717 106.304L632.553 104.047C622.928 94.0075 612.99 83.6424 603.054 73.1092C600.829 70.8732 599.495 72.1069 598.001 73.4878C597.799 73.6749 597.593 73.8647 597.383 74.049C593.454 77.8147 589.574 81.6293 585.694 85.4438C581.814 89.2584 577.934 93.073 574.006 96.8387C572.283 98.6452 570.361 100.318 568.591 101.859C567.532 102.78 566.527 103.655 565.652 104.482C565.514 104.613 565.38 104.741 565.249 104.869C565.222 104.895 565.195 104.921 565.169 104.947C577.429 117.464 588.935 129.032 600.058 140.212ZM69.6888 68.602C69.5355 68.7655 69.3823 68.9289 69.2291 69.0921C57.7968 81.28 46.7506 92.9002 36.2793 103.767C41.2902 108.804 46.5768 114.164 52.0051 119.668C57.5793 125.32 63.3029 131.123 69.0307 136.883C69.1883 137.042 69.3459 137.2 69.5035 137.359C69.6613 137.201 69.8193 137.043 69.9774 136.884C75.282 131.579 80.7178 126.188 86.1096 120.84C91.757 115.239 97.3561 109.686 102.706 104.329C92.1694 92.7747 81.2538 81.0294 70.1466 69.0939C69.994 68.93 69.8414 68.766 69.6888 68.602ZM493.583 139.424C493.74 139.584 493.896 139.744 494.052 139.904C494.21 139.746 494.368 139.588 494.526 139.429C505.763 128.186 516.991 116.766 527.454 106.098C520.943 99.3115 514.209 92.1495 507.297 84.7981C503.221 80.4637 499.084 76.0636 494.894 71.6357C494.74 71.4732 494.587 71.3107 494.433 71.1481C494.278 71.3102 494.124 71.4722 493.97 71.6342C482.54 83.6342 471.497 95.2532 461.22 106.12C466.004 111.019 470.997 116.171 476.102 121.439C481.834 127.353 487.706 133.412 493.583 139.424Z" fill="#9D884E" fill-opacity="0.35"/>
</svg>
