<svg id="Layer_1" data-name="Layer 1" xmlns="http://www.w3.org/2000/svg" viewBox="0 0 256 256"><defs><style>.cls-1{fill:#9d884e;fill-rule:evenodd;}</style></defs><path class="cls-1" d="M120.09,152.84c-.13.43-.25.79-.34,1.15-5.49,21.53-6.1,26.32-11.75,36.31a113.36,113.36,0,0,1-9.08,13.57c-.38.48-.74,1.11-1.49,1s-.9-.92-1-1.59a116,116,0,0,1-1.18-19.7c.28-8.6,1.35-11.56,12.44-58.2a3.22,3.22,0,0,0-.26-1.94,32.83,32.83,0,0,1-.86-21.8c5-15.9,23-17.12,26.21-4,1.94,8.12-3.2,18.75-7.14,34.45-3.27,13,12,22.17,25,12.71,12-8.72,16.68-29.63,15.8-44.44-1.75-29.54-34.14-35.92-54.69-26.41C88.22,84.8,82.86,114,93.5,127.35c1.35,1.7,2.39,2.73,1.94,4.45-.68,2.68-1.29,5.37-2,8-.55,2-2.21,2.69-4.21,1.88a24.05,24.05,0,0,1-9.84-7.37c-9-11.19-11.61-33.31.33-52C92.93,61.55,117.54,53.15,140,55.7c26.83,3,43.8,21.39,47,42.19,1.44,9.48.4,32.85-12.9,49.37-15.31,19-40.12,20.24-51.56,8.59C121.66,155,121,153.91,120.09,152.84Z"/></svg>